<svg xmlns="http://www.w3.org/2000/svg" width="400" height="394.08">
  <g fill-rule="evenodd">
    <path
      d="M386 69.2c-.64.28-2.24.8-3.54 1.16-2.7.74-4.52 1.43-7.88 2.96l-4.65 2.1a20.13 20.13 0 0 0-3.3 1.8c-.56.45-1.34.81-1.73.81-.39 0-.98.27-1.3.6a9.1 9.1 0 0 1-2.1 1.29c-1.54.7-3.71 2.03-4.06 2.48-.11.14-1.15.77-2.32 1.4l-3.15 1.68c-.57.3-1.18.79-1.35 1.08-.17.3-.53.54-.79.54s-.91.37-1.46.8c-.85.7-3.1 2.27-6.14 4.32-1.36.9-4.9 3.45-6.66 4.76a91.9 91.9 0 0 1-3.03 2.13c-.8.53-2.04 1.46-2.76 2.07-.72.61-2.1 1.63-3.08 2.28a85.4 85.4 0 0 0-5.2 3.98 133.88 133.88 0 0 1-5.86 4.53 53.01 53.01 0 0 0-3.53 2.71c-1.92 1.72-4.82 4.2-7.87 6.73a52.32 52.32 0 0 0-3.16 2.74c-.18.27-1.84 1.67-5.03 4.26-.72.58-2.14 1.85-3.16 2.82a84.36 84.36 0 0 1-3.76 3.33c-1.04.86-2.3 1.92-2.8 2.37l-3.35 2.97c-1.34 1.2-3.54 3.19-4.88 4.44-1.34 1.25-2.9 2.67-3.46 3.15-.56.49-2.26 2.04-3.79 3.45l-6.84 6.3a527.98 527.98 0 0 0-13.43 12.66c-.36.4-.76.74-.9.74-.12 0-2.39 2.08-5.02 4.63a3671.3 3671.3 0 0 0-43 42.21 796.1 796.1 0 0 0-12.75 12.8c-1.55 1.7-8.87 9.52-13.34 14.26-.65.7-2.52 2.74-4.14 4.55a158.7 158.7 0 0 1-4.16 4.5 48 48 0 0 0-2.95 3.36c-2.67 3.3-3.79 4.33-4.68 4.33-1.3 0-1.07-2.1.5-4.49.74-1.1 1.8-2.9 2.38-3.98.58-1.09 1.54-2.86 2.14-3.94l2.8-5.13a42.27 42.27 0 0 1 2.18-3.74c.27-.32.6-.86.74-1.18.45-1.08 5.6-9.97 8.11-14a93.3 93.3 0 0 0 3.64-6.5 104.8 104.8 0 0 1 3.78-6.51c.27-.43.85-1.44 1.29-2.25.44-.82.97-1.48 1.18-1.48.2 0 .5-.48.64-1.06.14-.58.75-1.77 1.34-2.66a214.5 214.5 0 0 0 6.2-10.56c.49-.9 1.16-1.93 1.48-2.28.32-.36.58-.83.58-1.05 0-.22.35-.72.79-1.11.43-.4.8-1 .8-1.34 0-.35.54-1.33 1.18-2.18a7.42 7.42 0 0 0 1.17-1.9c0-.2.51-1.1 1.13-2 2.03-2.95 4.78-7.26 4.78-7.5 0-.13.66-1.26 1.47-2.51.8-1.25 1.74-2.75 2.07-3.33 1.52-2.67 4.15-6.9 4.73-7.61.36-.44.86-1.24 1.13-1.78.26-.54 1.05-1.9 1.75-3 .7-1.12 1.83-2.98 2.53-4.15a156.8 156.8 0 0 1 2.75-4.41c.83-1.27 2.3-3.62 3.28-5.22 7.5-12.3 10.18-16.4 11.24-17.22 1.38-1.05 3.01-4.09 2.87-5.32-.18-1.55-1.59-1.64-2.98-.2-.6.63-1.88 1.77-2.86 2.55-2.2 1.75-4.26 3.74-21.94 21.1a2388.2 2388.2 0 0 1-16.5 16.08c-2.02 1.91-20.8 20.26-35.2 34.42a85.71 85.71 0 0 1-5.46 5.07c-.5.33-.9.8-.9 1.04-.01.24-1.1 1.42-2.43 2.61-1.32 1.2-4.14 3.85-6.25 5.91a252.13 252.13 0 0 1-5.17 4.93c-.73.65-1.64 1.67-2.02 2.26-.38.6-.87 1.09-1.08 1.09-.21 0-4.97 4.56-10.58 10.15-19.43 19.34-20.4 20.21-21.14 19.01-.24-.4 2.12-3.64 4.6-6.34a184.8 184.8 0 0 0 8-9.82 567.8 567.8 0 0 1 3.28-4.2 141 141 0 0 0 2.84-3.87c1.2-1.67 3-4.12 4.03-5.46 1.02-1.33 2.13-2.78 2.45-3.22.32-.43 1.34-1.76 2.27-2.95.92-1.2 2.48-3.33 3.46-4.75s2.37-3.37 3.09-4.34c.72-.96 2.59-3.7 4.16-6.08 1.57-2.39 3.47-5.22 4.24-6.3 1.65-2.36 6.38-9.4 8.35-12.42.77-1.2 2.13-3.2 3-4.48.88-1.26 1.6-2.4 1.6-2.52 0-.12.41-.77.91-1.44.5-.67 1.96-3.05 3.25-5.3 1.29-2.23 3.26-5.6 4.38-7.48 3.48-5.83 4.98-8.46 6.13-10.7a17.94 17.94 0 0 1 1.5-2.53c.21-.22.38-.78.38-1.25s.27-1.08.6-1.35c.32-.27.59-.7.59-.97 0-.26 1.44-3.3 3.2-6.75 1.76-3.44 3.43-6.89 3.71-7.65l1.35-3.54c1.08-2.8 2-5.55 3.5-10.45 2.43-7.95 2.57-8.9 2.6-17.14l.02-7.68-1.15-2.17c-1.32-2.48-5.16-6.7-6.1-6.7a4.9 4.9 0 0 1-1.73-.58c-1.57-.82-3.65-1.14-4.45-.69-.55.3-.27.45 1.34.67 1.13.15 2.04.4 2.04.56 0 .16.59.57 1.3.9 1 .48 1.67 1.34 2.79 3.54l1.47 2.91-.17 5.31c-.1 2.92-.44 6.55-.76 8.07-.92 4.26-1.54 6.63-1.92 7.38-.19.38-.34.87-.34 1.09 0 .38-2.24 6.32-3.34 8.87-.28.65-1 2.41-1.59 3.92-1.2 3.06-8.89 17.69-10.5 19.98a53.7 53.7 0 0 0-2.27 4 53.92 53.92 0 0 1-2.31 4.09c-.43.61-1.67 2.53-2.77 4.26a49.41 49.41 0 0 1-2.63 3.86 7 7 0 0 0-1.01 1.58 56 56 0 0 1-2.72 4.42 151.57 151.57 0 0 0-3.75 5.99 15.17 15.17 0 0 1-1.8 2.69c-.42.25-6.14 8.63-7.01 10.26-.28.53-.68.96-.89.96-.2 0-.37.25-.37.55 0 .3-.64 1.33-1.43 2.27-.79.94-2.42 3.22-3.63 5.06-2.99 4.55-5.45 7.75-6.17 8.02-.32.13-.6.46-.6.75 0 .28-.48 1.05-1.08 1.72-.6.66-1.7 2.07-2.44 3.14a31.57 31.57 0 0 1-1.88 2.46c-.28.29-1.02 1.26-1.65 2.17-.63.9-1.47 1.94-1.87 2.3-.4.36-1.35 1.5-2.1 2.56a39.7 39.7 0 0 1-1.58 2.1c-.11.11-1.25 1.53-2.52 3.16a54.64 54.64 0 0 1-2.95 3.54c-.35.33-2.41 2.81-4.58 5.52-2.17 2.71-4.92 6.1-6.1 7.53-1.2 1.43-2.62 3.18-3.16 3.9a50.5 50.5 0 0 1-1.97 2.39c-1.08 1.2-4.82 5.72-10.1 12.19a249.3 249.3 0 0 1-3.95 4.73c-.3.32-2.15 2.53-4.1 4.91-1.94 2.38-3.8 4.47-4.12 4.65-.33.18-.6.51-.6.73 0 .23-1.16 1.77-2.6 3.43l-4.03 4.72-2.75 3.15c-.72.8-1.6 1.9-1.97 2.45-.87 1.29-5.2 6.7-7.64 9.53a67.24 67.24 0 0 0-4.03 5.4 43.16 43.16 0 0 1-2.74 3.8c-4.27 4.26 7.05 2.05 12.71-2.49 3.42-2.74 30.08-29.18 35.52-35.22 2.85-3.17 6.42-7.1 8.89-9.8.9-.97 2.74-3 4.1-4.52 3.04-3.37 28.21-29.14 30.94-31.68 1.08-1 4.47-4.3 7.53-7.34 7.05-6.98 9.51-9.26 10.02-9.26.21 0 .4-.13.4-.3 0-.16.66-.95 1.47-1.75.82-.8 2.82-2.8 4.46-4.44a33.28 33.28 0 0 1 3.2-2.97c.12 0 1-.75 1.96-1.67 5.03-4.85 11.66-11.13 14.95-14.18 2.04-1.9 5.3-4.97 7.25-6.84 1.96-1.87 4.8-4.48 6.31-5.8 1.52-1.34 3.74-3.36 4.94-4.5 3.4-3.24 3.93-3.55 4.58-2.66.69.94.67 1.56-.06 2.3-.33.32-.77 1-.99 1.5-.21.5-.57 1.18-.78 1.5a316.6 316.6 0 0 0-7.5 13.27c0 .15-.24.55-.54.9-.3.34-1.09 1.6-1.74 2.78a221.4 221.4 0 0 1-3.1 5.4c-1.8 3.05-3.13 5.36-5.14 8.9l-2.6 4.56a261.8 261.8 0 0 0-3.62 6.56 45.7 45.7 0 0 1-2.52 4.34c-.63.78-.92 1.25-2.61 4.32-1.32 2.39-3.3 5.78-4.13 7.1-.42.66-1.11 1.9-1.55 2.76-.44.87-.97 1.85-1.18 2.17a189.5 189.5 0 0 0-4.3 7.49c-.26.54-1.1 1.96-1.84 3.15a45.5 45.5 0 0 0-1.63 2.76c-.15.33-1.13 2.03-2.18 3.79a34.06 34.06 0 0 0-1.9 3.44c0 .13-.64 1.24-1.43 2.47a79.88 79.88 0 0 0-2.8 4.83 36.98 36.98 0 0 1-2.26 3.8c-.49.65-1.3 1.98-1.78 2.95a157.3 157.3 0 0 1-4.76 8.28 7.6 7.6 0 0 0-.6 1.18 7.3 7.3 0 0 1-.6 1.18 56.06 56.06 0 0 1-2.47 4.33 397.15 397.15 0 0 0-6.69 11.47c-.14.3-.8 1.44-1.44 2.53a50.23 50.23 0 0 0-1.65 2.95 9.74 9.74 0 0 1-.95 1.58c-.48.58-2.64 4.55-5.16 9.44-3.54 6.88.47 5.95 6.08-1.41 2.76-3.63 4-5.2 6.73-8.47a246.27 246.27 0 0 1 10.43-12.03 47.87 47.87 0 0 0 2.88-3.35c.54-.73 3.43-3.9 6.42-7.04 2.99-3.14 6.13-6.5 6.98-7.48.84-.98 2.25-2.52 3.12-3.44.86-.9 2.72-2.94 4.13-4.5 1.41-1.58 6.13-6.5 10.48-10.96a3707.9 3707.9 0 0 0 14.19-14.6c11.21-11.62 48.1-47.98 53.76-52.99 1.19-1.05 3.86-3.53 5.94-5.5a615.67 615.67 0 0 1 15.53-14.31 178.7 178.7 0 0 0 4.56-4.1 58.4 58.4 0 0 1 3.55-3c1.18-.9 2.71-2.2 3.4-2.85.7-.66 2.65-2.35 4.34-3.76 1.69-1.4 3.34-2.8 3.66-3.08a883.93 883.93 0 0 1 17.77-14.12c.96-.8 2.98-2.42 4.5-3.62l4-3.19a6.28 6.28 0 0 1 1.48-1.01c.14 0 1.62-1.03 3.3-2.3 3.05-2.3 12.77-8.34 13.43-8.34.2 0 .59-.29.88-.64 1-1.2 9.15-4.64 12.47-5.26 2.48-.46 3.1-.27 3.87 1.22.75 1.44.92 1.42 3.1-.25 1-.75 1.92-1.38 2.05-1.38.12 0 .73-.4 1.34-.88 2.32-1.87 2.92-2.27 3.4-2.27.28 0 .7-.37.94-.82a4.22 4.22 0 0 1 1.83-1.4 9.64 9.64 0 0 0 2.43-1.57c1.48-1.4 7-5.27 7.5-5.27.25 0 .77-.34 1.18-.74.41-.41 1.81-1.47 3.11-2.36 1.3-.88 2.61-1.84 2.9-2.13.53-.5 6.6-4.63 6.83-4.63.8 0 3.1-2.94 3.1-3.95 0-2.64-4.96-4.09-8.6-2.51m-221.88 5.5a90.4 90.4 0 0 0-10.44 2.01c-5.04 1.38-10.13 2.94-11.24 3.44-.65.3-2.95 1.28-5.12 2.19-7.1 2.98-17.96 8.7-24 12.63l-2.05 1.33-3.9 2.55a34.84 34.84 0 0 0-3.15 2.22c-.22.24-1.02.85-1.78 1.36-.76.52-2 1.5-2.76 2.2-.75.7-2.03 1.7-2.84 2.23-.8.53-2.95 2.38-4.77 4.1a870.19 870.19 0 0 1-5.82 5.45 186.51 186.51 0 0 0-16.7 17.27c-1.25 1.47-2.43 2.66-2.62 2.66-.2 0-.35.2-.35.45 0 .24-1.35 1.96-3 3.81a85.67 85.67 0 0 0-4.38 5.27c-.75 1.05-1.52 1.9-1.72 1.9-.2 0-.36.19-.36.41 0 .38-2.68 4.16-4.73 6.69a30.6 30.6 0 0 0-1.96 2.95 25.53 25.53 0 0 1-2.16 3.12c-.55.63-1 1.28-1 1.46 0 .17-.78 1.43-1.73 2.8-1.54 2.2-3.21 5.22-7.27 13.11-9.15 17.85-10.96 35.36-4.1 39.77 4.84 3.13 17.7 2.51 24.53-1.17 1.29-.7 6.56-2.93 6.9-2.93.15 0 .95-.53 1.77-1.18a6.62 6.62 0 0 1 1.89-1.18c.32 0 4.2-2.43 4.78-3 .09-.09-.3-.16-.86-.16s-1.3.27-1.62.6c-.32.32-.74.59-.93.59-.2 0-1.05.5-1.9 1.1a29.2 29.2 0 0 1-4.71 2.4c-1.74.7-3.66 1.53-4.27 1.84-.61.31-1.35.57-1.63.57-.28 0-1.02.26-1.64.59-.62.32-1.48.59-1.92.6-.43 0-1.5.26-2.36.57-3.95 1.42-13.05.5-14.97-1.52-1.58-1.67-1.92-2.84-1.95-6.55a28.6 28.6 0 0 1 3.17-13.53c.3-.61.55-1.37.55-1.69 0-.5 1.43-3.63 2.85-6.26l2.18-4.13c.97-1.85 2-3.55 2.3-3.8.3-.23.55-.56.55-.73 0-.52 3.57-6.21 4.97-7.91a9.6 9.6 0 0 0 1.33-1.9c0-.14 1.24-2.07 2.75-4.3 4.11-6 5.13-7.43 6.38-8.95 2-2.43 4.6-5.62 7.7-9.46 2.8-3.47 5.55-6.63 12.35-14.19 3.9-4.35 16.4-16.64 18.9-18.6 1.2-.93 2.61-2.08 3.15-2.55.54-.47 1.88-1.55 2.96-2.41l5.43-4.37a132.9 132.9 0 0 1 6.9-5.16c1.89-1.3 4.94-3.42 6.78-4.72a137.85 137.85 0 0 1 29.13-15.45c2.64-1.01 11.67-3.2 15.2-3.69 2.17-.3 4.66-.7 5.52-.91 2.59-.6-8.05-.47-12.21.16m-34.84 85.2c-7.6 7.87-16.42 16.69-18.92 18.94-1.6 1.44-3.55 3.23-4.33 3.96-.78.73-2.57 2.26-3.98 3.4a254.35 254.35 0 0 0-6.37 5.36c-5.34 4.63-8.87 7.44-9.35 7.44-.22 0-.54.24-.71.52a20.2 20.2 0 0 1-2.76 2.37 54.37 54.37 0 0 0-2.96 2.36 4.2 4.2 0 0 1-1.23.78c-.39.15-.61.44-.49.64.27.43 1.8.08 1.8-.42 0-.2.4-.52.89-.73.48-.21 1.86-1.1 3.05-1.96a93.1 93.1 0 0 1 3.9-2.66 74.22 74.22 0 0 0 7.95-6.1 496.7 496.7 0 0 1 6.08-5.11c2.17-1.8 4.83-4.14 5.91-5.2 1.09-1.05 3.64-3.44 5.67-5.32 2.04-1.87 4.43-4.19 5.32-5.15.9-.97 2.09-2.2 2.65-2.76 3.57-3.52 10.99-11.93 10.8-12.25-.4-.63-.62-.49-2.92 1.9M280 205.96c-3.62.44-8.6 1.98-13.8 4.28a246.3 246.3 0 0 0-12.21 6.13 42.4 42.4 0 0 1-2.96 1.56c-.54.24-1.34.77-1.77 1.17a7.5 7.5 0 0 1-1.77 1.17c-.98.43-5.3 3.15-9.7 6.1-1.28.87-3.3 2.49-4.49 3.62a97.81 97.81 0 0 1-3.93 3.5c-.97.81-2.1 1.85-2.5 2.3-.4.47-1.38 1.56-2.18 2.43-6.55 7.09-12.36 16.77-13.85 23.05-.18.76-.52 2-.75 2.76-.75 2.38-.54 11.75.3 13.6 2.04 4.49 7.86 4.79 18.79.96 1.94-.68 4.3-1.48 5.23-1.78a68.4 68.4 0 0 0 7.36-3.04c.94-.5 2.92-1.49 3.75-1.86.32-.15 1.74-.9 3.15-1.66l5.12-2.77c4.78-2.58 5.32-2.9 7.69-4.45 1.3-.85 2.67-1.73 3.04-1.95.37-.22 2.2-1.38 4.06-2.57 1.87-1.19 4.13-2.58 5.04-3.08.9-.5 2.02-1.26 2.46-1.68.45-.41 1-.75 1.22-.75.83 0 1.71-1.5 1.71-2.9 0-1.86-.52-1.85-3.43.06a688.03 688.03 0 0 1-9.62 6.19c-.35.21-1.87 1.2-3.36 2.2-9.03 6-21.54 12.77-26.86 14.53-1.37.46-2.79 1-3.16 1.2-2.3 1.32-10.7 3.9-13.71 4.22-5.9.62-4.86-7.58 2.56-19.94 2.6-4.34 2.52-4.28 8.13-6.29 6.86-2.46 18.66-8.1 27.06-12.95a79.34 79.34 0 0 1 5.24-2.88c.13 0 .72-.33 1.3-.74.6-.4 3.72-2.48 6.95-4.6 12.53-8.24 18.76-15.19 18.76-20.94 0-3.72-2.6-4.95-8.87-4.2m-203.25.41c-.38.1-.7.34-.7.55 0 .2-.33.36-.76.36-.42 0-.87.18-1 .4-.14.22.2.39.77.39.56 0 1.13-.27 1.25-.6.13-.32.47-.58.78-.58.3 0 .55-.18.55-.4 0-.21-.05-.37-.1-.35-.06.03-.41.13-.8.23m201.8 3.18c1.56 1.37-2.77 7.33-9.85 13.52-1.8 1.58-4.48 3.94-5.96 5.26a39.04 39.04 0 0 1-3.35 2.77c-.36.2-1.68 1.17-2.92 2.16a188.87 188.87 0 0 1-13.62 9.69c-12.28 7.24-15.9 7.52-10.37.8 6.07-7.36 22.09-22.64 26-24.8.35-.2 1.2-.83 1.88-1.39 2.21-1.82 3.05-2.4 3.5-2.4.25 0 .86-.44 1.37-.98 2.75-2.93 11.7-6.04 13.31-4.63"
      fill="#fff"
    />
    <path
      d="M169.96 4.92c-.2.37-1.01.61-2.2.66-1.02.03-2.05.3-2.3.6-.3.36-1.5.52-3.93.52-2.85 0-3.5.11-3.5.6 0 .44-.48.58-1.92.58-1.23 0-2.1.22-2.42.6-.34.4-1.24.58-2.95.58-1.71 0-2.62.18-2.96.6-.27.32-1 .59-1.65.59-.63 0-1.05.16-.92.36.35.57-.25.77-2.69.86-1.69.07-2.2.23-2.06.62.15.39-.29.52-1.75.52-1.48 0-1.96.15-1.96.6 0 .45-.53.58-2.37.58-1.68 0-2.33.15-2.26.5.06.3-.42.54-1.18.61-.8.08-1.28.34-1.28.7 0 .48-1.85.83-3.26.6-.16-.02-.3.22-.3.55 0 .4-.39.59-1.17.59-.8 0-1.19.2-1.19.6 0 .45-.5.58-2.18.58-1.57 0-2.24.17-2.4.6-.13.32-.48.58-.78.58-.3 0-.5.23-.45.5.06.3-.41.54-1.18.61-.8.08-1.28.34-1.28.7 0 .34-.4.56-1 .56-.55 0-1.1.27-1.22.59-.15.39-.77.6-1.78.6-1 0-1.62.2-1.77.58-.13.33-.54.6-.92.6-.39 0-.92.26-1.2.58-.26.33-.91.6-1.43.6-.53 0-1.06.26-1.18.59-.13.32-.47.59-.78.59-.3 0-.55.26-.55.59 0 .4-.4.6-1.28.6-1.28.02-3.05 1.13-3.05 1.93 0 .23-.62.42-1.38.42-.87 0-1.34.18-1.28.48.06.27-.5.6-1.28.74-.76.14-1.22.28-1.02.3.62.1-1.44 2.03-2.15 2.03-.37 0-.9.27-1.17.6-.27.32-.73.58-1.03.58-.3 0-.5.14-.44.3.2.6-1.7 2.07-2.66 2.07-.62 0-.99.22-.99.59a.6.6 0 0 1-.59.6.6.6 0 0 0-.6.58c0 .35-.35.6-.89.6-.51 0-1.36.52-1.98 1.22-.66.76-1.45 1.24-2.05 1.24-.53 0-.87.15-.75.34.12.2-.06.46-.4.59-.34.13-.62.48-.62.78 0 .37-.46.55-1.38.55-1.27 0-1.38.1-1.38 1.18 0 1.07-.34 1.39-1.3 1.23-.17-.03-.77.48-1.32 1.13-.55.66-1.25 1.2-1.55 1.2-.3 0-.56.17-.56.38 0 .52-1.46 1.98-1.97 1.98-.21 0-.4.16-.4.37 0 .71-3.97 4.35-4.75 4.35-.43 0-.89.27-1.01.6-.13.32-.47.59-.78.59-.3 0-.55.16-.55.35 0 .6-2.47 3.2-3.02 3.2a.53.53 0 0 0-.52.54c0 .3-.27.65-.6.78-.32.12-.59.67-.59 1.22 0 .88-.35 1.18-1.25 1.05-.15-.02-.63.4-1.05.95-.53.67-.84.83-.98.49-.1-.28-.21-.02-.23.58-.03 1.07-1.23 2.66-2 2.66-.22 0-.4.27-.4.6 0 .32-.24.58-.54.58-.3 0-.64.37-.76.83-.14.53-.4.72-.7.53-.34-.21-.42-.11-.26.31.16.4-.03.69-.52.82-.5.13-.76.54-.76 1.22 0 .96-.67 1.3-2.1 1.06-.16-.03-.28.17-.24.45.15 1.16-.06 1.88-.57 1.88-.3 0-.65.37-.77.82-.13.54-.38.72-.7.53-.33-.2-.41-.11-.26.28.13.34-.1.79-.53 1.06-.4.25-.74.82-.74 1.25 0 .43-.18.78-.4.78-.77 0-.99.08-1.48.48a1.6 1.6 0 0 0-.49 1.1c0 .4-.25.8-.56.92-.31.12-.62.72-.7 1.32-.06.63-.33 1.07-.61 1.01-.3-.06-.5.35-.5 1.09 0 .74-.2 1.18-.54 1.18-.3 0-.64.37-.76.83-.12.45-.4.71-.61.58-.23-.14-.45.3-.52 1.04-.08.85-.31 1.25-.67 1.18-.33-.07-.45.1-.32.45s-.08.65-.54.77c-.44.11-.76.54-.76 1 0 .44-.53 1.37-1.17 2.07a5.63 5.63 0 0 0-1.29 2.1c-.07.45-.34.77-.6.72-.33-.07-.49.47-.49 1.65 0 1.6-.08 1.75-1.08 1.87-.82.1-1.12.37-1.22 1.1-.08.55-.39 1.14-.7 1.3-.3.18-.55.74-.55 1.24s-.26 1.14-.58 1.4c-.33.27-.5.63-.4.8.1.16-.17.75-.6 1.3a3.58 3.58 0 0 0-.78 1.57c0 .33-.27.7-.6.82-.38.15-.58.76-.58 1.81 0 1.15-.17 1.59-.6 1.59-.32 0-.59.25-.59.55 0 .3-.26.65-.59.77-.42.17-.59.84-.59 2.41 0 1.68-.13 2.18-.59 2.18-.4 0-.59.4-.59 1.18 0 .8-.2 1.19-.6 1.19-.32 0-.56.13-.54.3.18 1.08-.13 2.06-.63 2.06-.38 0-.6.38-.6 1.01a2.6 2.6 0 0 1-.59 1.6c-.36.37-.59 1.34-.59 2.54 0 1.47-.14 1.94-.59 1.94-.39 0-.59.4-.59 1.14 0 .62-.26 1.35-.58 1.61-.32.27-.56.6-.54.74.21 1.63-.14 3.6-.65 3.6-.44 0-.6.47-.6 1.78s-.15 1.78-.59 1.78c-.47 0-.59.59-.59 2.95 0 2.37-.11 2.96-.59 2.96-.46 0-.59.52-.59 2.36 0 1.84-.13 2.36-.59 2.36-.46 0-.59.53-.59 2.37s-.13 2.36-.6 2.36c-.45 0-.58.53-.58 2.33 0 1.7-.16 2.38-.6 2.55-.48.18-.58 1.15-.58 5.32 0 4.16-.11 5.13-.6 5.32-.9.34-.9 42.41 0 42.41.5 0 .6.8.6 4.73 0 3.94.1 4.73.59 4.73.48 0 .59.64.59 3.37 0 2.62.13 3.4.59 3.58.44.17.59.87.59 2.7 0 1.72.18 2.62.6 2.96.33.29.58 1.15.58 2.02 0 1.1.17 1.53.6 1.53.47 0 .58.61.58 3.15s.12 3.16.6 3.16c.43 0 .59.46.59 1.77s.15 1.77.59 1.77c.44 0 .59.46.59 1.78 0 1.31.15 1.77.59 1.77.44 0 .6.46.6 1.77 0 1.32.14 1.78.58 1.78.46 0 .6.52.6 2.36 0 1.84.12 2.37.58 2.37.36 0 .6.36.6.94 0 .52.26 1.04.59 1.17.34.13.59.72.59 1.42 0 .8.2 1.2.59 1.2.37 0 .59.37.59 1 0 .54.27 1.1.6 1.22.42.16.58.85.58 2.55 0 1.8.14 2.32.6 2.32.36 0 .58.37.58 1 0 .55.27 1.1.6 1.22.32.13.59.47.59.78 0 .3.26.55.59.55.43 0 .59.43.59 1.57 0 1.14.16 1.58.59 1.58.39 0 .6.39.6 1.14 0 .65.24 1.24.58 1.37.35.13.6.72.6 1.42 0 .8.19 1.2.58 1.2.37 0 .6.37.6.99 0 .55.26 1.1.59 1.22.32.13.59.49.59.8 0 .32.18.47.4.33.45-.28 1.3 1.66.95 2.21-.13.2 0 .32.28.26.29-.06.58.28.65.75.07.48.39 1.07.7 1.33.3.26.56.72.56 1.02 0 .3.27.54.6.54.39 0 .59.4.59 1.18 0 .74.18 1.15.49 1.09.3-.06.54.41.62 1.18.1 1.12.26 1.28 1.28 1.28 1.04 0 1.15.13 1.16 1.28 0 1.08.76 3.13.78 2.11 0-.66 1.46 1.54 1.72 2.62.15.6.44 1.08.65 1.08.22 0 .4.28.4.62 0 .33.18.5.41.35.23-.14.52.11.64.57.12.45.46.83.76.83.48 0 .7.46.6 1.24-.01.14.23.47.55.74.32.26.58.73.58 1.04 0 .31.19.45.42.31.23-.14.52.11.63.57.12.45.47.82.77.82.34 0 .54.44.54 1.19 0 .65.13 1.16.3 1.13 1.5-.23 2.07.1 2.07 1.23 0 .72.2 1.19.52 1.19.55 0 3.02 2.6 3.02 3.19 0 .2.27.35.6.35a.6.6 0 0 1 .59.6c0 .32.17.58.39.58.51 0 1.97 1.46 1.97 1.97 0 .22.27.4.6.4.32 0 .58.26.58.59 0 .32.27.59.6.59.39 0 .58.4.58 1.18 0 .8.2 1.19.6 1.19a.6.6 0 0 1 .59.6c0 .35.19.5.42.36.23-.14.52.12.63.57.12.46.47.83.78.83.3 0 .66.26.78.6.13.32.65.58 1.17.58.79 0 .95.2.95 1.18 0 .8.2 1.19.59 1.19a.6.6 0 0 1 .59.59c0 .32.24.59.54.59.3 0 .76.25 1.01.57.26.3.86.62 1.33.7.48.07.82.34.76.61-.05.27.08.48.3.48.51 0 1.97 1.46 1.97 1.97 0 .22.2.4.43.4.23 0 1.2.8 2.15 1.77.95.98 2.09 1.77 2.53 1.77.63 0 .8.26.8 1.19 0 1.05.13 1.18 1.17 1.18.84 0 1.42.33 2.05 1.18.48.65 1.2 1.18 1.58 1.18.76 0 2.56 1.57 2.4 2.07-.06.16.43.3 1.08.3.78 0 1.18.2 1.18.59 0 .32.16.59.37.59.2 0 .95.53 1.66 1.18.71.65 1.61 1.19 2 1.19.38 0 .7.26.7.59 0 .4.41.59 1.38.59.9 0 1.34.17 1.28.49-.06.28.37.55.98.62.74.08 1.09.35 1.09.83 0 .83.65 1.45 1.77 1.68.43.1.74.38.69.64-.06.3.51.47 1.67.47 1.32 0 1.78.15 1.78.59 0 .32.25.59.55.59.3 0 .65.26.77.59.13.32.68.6 1.23.6.62 0 1 .21 1 .58 0 .33.24.6.54.6.3 0 .66.26.78.58.15.4.77.6 1.82.6 1.14 0 1.58.16 1.58.59 0 .32.27.59.6.59a.6.6 0 0 1 .59.59c0 .44.46.59 1.77.59s1.77.15 1.77.6c0 .32.25.58.55.58.3 0 .76.27 1.03.6.28.33 1.14.58 2.02.58.92 0 1.49.18 1.43.44-.06.24.34.51.88.6.53.1 1.12.43 1.3.75.17.32.84.58 1.48.58.65 0 1.12.2 1.07.44-.06.24.33.5.86.6.53.09 1.26.42 1.61.74.45.4 1.55.58 3.67.58 2.65 0 3.02.1 3.02.71 0 1.17.84 1.66 2.84 1.66 1.42 0 1.89.15 1.89.59 0 .44.46.59 1.77.59 1.32 0 1.78.15 1.78.6 0 .43.45.58 1.69.58.93 0 1.92.22 2.19.5.55.55.63.57 2.81.64 1.12.03 1.58.22 1.58.64 0 .47.6.59 2.96.59s2.95.12 2.95.59.6.59 2.96.59 2.95.12 2.95.59.6.6 2.96.6c2.14 0 2.96.13 2.96.5 0 .35.85.54 2.85.62 1.78.07 3.1.33 3.48.67.93.85 46.28.84 46.75 0 .23-.41 1.33-.59 4.2-.67 2.74-.07 3.94-.26 4.08-.62.14-.35 1.1-.5 3.18-.5 2.04 0 3.18-.19 3.6-.58.38-.34 1.62-.6 3.1-.65 1.47-.06 2.64-.3 2.9-.62.27-.33 1.31-.52 2.82-.52 1.54 0 2.6-.2 3.02-.58a3.8 3.8 0 0 1 1.93-.68c.7-.05 1.47-.32 1.7-.6.23-.28 1.2-.5 2.15-.5 1.27 0 1.72-.16 1.72-.6 0-.42.44-.59 1.56-.59.95 0 1.68-.22 1.88-.57.18-.33 1.02-.61 1.98-.67 1.07-.06 1.68-.28 1.68-.61 0-.3.47-.51 1.18-.51.79 0 1.18-.2 1.18-.6 0-.45.5-.59 2.15-.59 1.43 0 2.25-.18 2.46-.55.18-.3.76-.62 1.3-.7.54-.08.94-.36.89-.63-.07-.32.49-.48 1.69-.48 1.22 0 1.85-.19 2-.6.13-.32.48-.58.78-.58.3 0 .55-.27.55-.6 0-.43.46-.59 1.78-.59 1.31 0 1.77-.15 1.77-.59 0-.4.4-.59 1.18-.59.8 0 1.19-.2 1.19-.59 0-.4.39-.59 1.18-.59.79 0 1.18-.2 1.18-.6a.6.6 0 0 1 .6-.58.6.6 0 0 0 .58-.6c0-.43.46-.59 1.78-.59 1.3 0 1.77-.15 1.77-.59 0-.39.4-.59 1.18-.59.79 0 1.18-.2 1.18-.59 0-.37.38-.59 1-.59.55 0 1.1-.27 1.23-.59.12-.33.47-.6.77-.6.3 0 .55-.26.55-.58 0-.41.41-.6 1.33-.6.73 0 1.55-.26 1.82-.59.27-.32.74-.59 1.04-.59.3 0 .5-.21.44-.48-.05-.26.27-.54.72-.6.45-.08 1.4-.66 2.1-1.3.7-.64 1.48-1.16 1.75-1.16.26 0 1.06-.53 1.77-1.19.71-.64 1.53-1.18 1.81-1.18.29 0 .74-.26 1.01-.59.27-.32.74-.59 1.04-.59.3 0 .54-.27.54-.6 0-.32.33-.58.74-.58.4 0 .96-.27 1.23-.6.27-.32.74-.58 1.03-.58.3 0 .55-.27.55-.6 0-.5.51-.78.92-.49.35.25 1.44-1.06 1.44-1.72 0-.56.29-.74 1.2-.74.76 0 1.11-.16.95-.42-.14-.23.11-.52.56-.64.46-.12.72-.38.6-.59-.13-.2.14-.47.6-.6.45-.11.82-.45.82-.75s.27-.55.6-.55a.6.6 0 0 0 .58-.59.6.6 0 0 1 .6-.59.6.6 0 0 0 .59-.6c0-.39.39-.58 1.18-.58.78 0 1.18-.2 1.18-.6a.6.6 0 0 1 .59-.59c.32 0 .6-.34.6-.77 0-.53.18-.7.59-.55.42.17.52.05.35-.4-.18-.46-.02-.64.59-.64.47 0 .83-.25.83-.59 0-.32.26-.6.59-.6.32 0 .59-.16.59-.37 0-.56 2.7-3.17 3.28-3.17.72 0 1.45-.83 1.45-1.65 0-.4.26-.71.59-.71a.6.6 0 0 0 .59-.6c0-.32.26-.58.6-.58a.6.6 0 0 0 .58-.6.6.6 0 0 1 .6-.59.6.6 0 0 0 .58-.59.6.6 0 0 1 .6-.59c.32 0 .59-.18.59-.4 0-.5 1.46-1.96 1.97-1.96.21 0 .4-.23.4-.5.02-.73 1.5-2.36 1.9-2.1.2.12.34-.08.31-.45-.03-.38.21-.68.54-.69.32 0 .61-.23.64-.5l.1-1.08c.03-.39.46-.6 1.23-.6 1.05 0 1.18-.13 1.18-1.18 0-.79.2-1.18.6-1.18.33 0 .58-.35.58-.81 0-.45.18-.7.4-.57.22.14.5-.03.63-.37.14-.34.49-.62.79-.62.35 0 .55-.43.55-1.18 0-1 .4-1.46.92-1.08.35.25 1.44-1.06 1.44-1.72 0-.41.27-.74.6-.74.39 0 .59-.4.59-1.19 0-.78.2-1.18.59-1.18a.6.6 0 0 0 .59-.59.6.6 0 0 1 .59-.59c.37 0 .59-.37.59-.99 0-.98 1.22-2.56 1.97-2.56.22 0 .4-.53.4-1.18 0-.74.2-1.18.54-1.18.3 0 .64-.37.76-.83.12-.45.4-.71.64-.57.23.15.42 0 .42-.3 0-.31.26-.8.59-1.06.33-.27.6-.82.6-1.23 0-.4.26-.74.58-.74.4 0 .6-.4.6-1.18 0-.8.2-1.19.58-1.19.4 0 .6-.39.6-1.18 0-.79.2-1.18.59-1.18.4 0 .59-.4.59-1.18 0-.75.2-1.18.54-1.18.3 0 .65-.38.77-.83.11-.46.4-.71.63-.57.26.16.42-.2.42-.95 0-.8.2-1.2.6-1.2.43 0 .58-.46.58-1.77 0-1.32.16-1.78.6-1.78.36 0 .59-.37.59-.98 0-.98 1.22-2.56 1.97-2.56.21 0 .4-.78.4-1.74 0-1.17.18-1.8.58-1.95.33-.13.6-.68.6-1.23 0-.62.22-1 .59-1 .39 0 .59-.39.59-1.18 0-.79.2-1.18.59-1.18.39 0 .59-.39.59-1.13 0-.63.26-1.36.59-1.63.38-.31.6-1.18.6-2.41 0-1.45.14-1.92.58-1.92.4 0 .6-.4.6-1.19 0-.79.19-1.18.58-1.18.33 0 .57-.13.55-.3-.2-1.3.13-3.25.55-3.25.28 0 .55-.47.6-1.05.04-.58.35-1.35.67-1.7.35-.39.59-1.42.59-2.5 0-1.37.15-1.84.6-1.84.43 0 .58-.46.58-1.77 0-1.23.17-1.78.53-1.78.4 0 .56-.76.62-2.85.05-1.77.27-2.96.57-3.13.26-.15.53-.94.58-1.77.06-.82.36-1.64.68-1.82.41-.23.57-1.06.57-3 0-1.82.18-2.85.54-3.15.4-.33.57-1.63.62-4.67.04-3.05.22-4.4.63-4.85.44-.48.57-1.79.57-5.38 0-3.87.12-4.8.6-4.99.86-.33.9-33.14.03-33.63-.4-.23-.58-1.32-.65-4.06-.06-2.3-.3-3.97-.6-4.33-.31-.38-.53-2.1-.59-4.73-.06-2.66-.27-4.35-.59-4.73-.28-.32-.55-1.87-.62-3.45-.08-2-.26-2.86-.62-2.86-.35 0-.5-.7-.5-2.36 0-1.84-.13-2.36-.6-2.36-.44 0-.59-.48-.59-1.93 0-1.22-.2-2.1-.59-2.4-.39-.33-.59-1.22-.59-2.63 0-1.53-.16-2.2-.59-2.36-.32-.12-.59-.64-.59-1.15 0-.5-.26-1.07-.57-1.24-.32-.18-.62-1-.68-1.84-.05-.84-.33-1.6-.6-1.71-.31-.12-.51-.88-.51-1.92 0-1.36-.13-1.67-.6-1.49-.47.19-.59-.16-.59-1.78 0-1.53-.14-2.02-.59-2.02-.43 0-.59-.44-.59-1.59 0-1.04-.2-1.66-.59-1.81-.34-.13-.6-.72-.6-1.37 0-.75-.2-1.14-.58-1.14-.4 0-.6-.4-.6-1.18 0-.74-.18-1.15-.49-1.08-.3.06-.54-.42-.61-1.19-.08-.79-.34-1.28-.7-1.28-.4 0-.56-.5-.56-1.77 0-1.31-.15-1.77-.59-1.77-.4 0-.59-.42-.59-1.34 0-.73-.27-1.55-.6-1.82-.32-.27-.58-.73-.58-1.03 0-.3-.27-.54-.6-.54-.39 0-.59-.4-.59-1.19 0-.76-.2-1.18-.56-1.18-.32 0-.62-.46-.69-1.08-.07-.61-.34-1.04-.62-.99-.32.07-.49-.38-.49-1.28 0-.96-.18-1.38-.59-1.38a.6.6 0 0 1-.6-.59c0-.32-.21-.55-.48-.5-.3.07-.55-.4-.62-1.17-.07-.74-.35-1.28-.64-1.28-.29 0-.62-.36-.73-.8-.24-.9-1.07-1.06-1.07-.2 0 .32-.57.88-1.28 1.24-.7.36-1.37.76-1.48.9-1.85 2.26-5.36 3.27-6.11 1.75-1.34-2.7-3.2-2.48-11.03 1.3-7.07 3.42-25.92 15.9-27.7 18.35-.29.4-.78.7-1.1.7-.32 0-.69.27-.81.6-.13.32-.47.59-.76.59-.3 0-.71.33-.93.73-.21.4-1.41 1.48-2.67 2.41a31.9 31.9 0 0 0-2.68 2.14 27.6 27.6 0 0 1-2.56 2.01 15.6 15.6 0 0 0-2.3 1.87c-.07.16-.3.3-.52.3-.21 0-.96.57-1.66 1.28-2.13 2.13-3.7 3.45-4.14 3.45-.22 0-1.25.8-2.28 1.77-1.04.98-2.03 1.77-2.2 1.77-.19 0-1.08.77-2 1.7a35.9 35.9 0 0 1-3.42 3.06c-.97.74-2.05 1.62-2.4 1.94a350 350 0 0 1-9.22 8.13c-2.4 2.03-4.77 4.19-9.47 8.62-.69.65-2.52 2.34-4.08 3.75-2.97 2.67-3.5 3.18-4.25 4.02-.24.28-2.17 2.1-4.29 4.05a1263 1263 0 0 0-26.54 25.97 81.75 81.75 0 0 1-3.99 3.91c-1.54 1.27-23.43 23.48-35.57 36.07-2.33 2.42-4.42 4.4-4.63 4.4-.22 0-.4.22-.4.5 0 .26-.81 1.28-1.8 2.26-1 .97-2.81 2.88-4.04 4.23-1.23 1.36-2.45 2.47-2.72 2.47s-.5.26-.5.59c0 .32-.93 1.52-2.06 2.67a251.68 251.68 0 0 0-6.6 7.14c-2.5 2.79-5.42 6-6.5 7.12-2.22 2.3-5.58 6.12-6.97 7.9-.5.65-1.4 1.66-2 2.25a5.16 5.16 0 0 0-1.09 1.31c0 .2-6.24 7.57-7.78 9.17-.27.29-.5.7-.5.92 0 .21-.53.83-1.18 1.38-.65.55-1.18 1.22-1.18 1.49s-.48.96-1.08 1.54c-1.68 1.63-2.46 2.59-2.46 3.01 0 .6-4.02 2.76-5.15 2.77-2.71 0-3.27-2.07-1.55-5.78.65-1.4 1.18-2.63 1.18-2.72 0-.1.62-1.03 1.38-2.09a11.35 11.35 0 0 0 1.38-2.23 21 21 0 0 1 1.72-3.1c.95-1.54 2.2-3.69 2.8-4.77a750.5 750.5 0 0 1 7.1-12.42 30.03 30.03 0 0 0 1.48-2.78c.12-.35.9-1.68 1.72-2.96a76.2 76.2 0 0 0 2.34-3.91 84.2 84.2 0 0 1 1.7-2.96 32.5 32.5 0 0 0 1.54-2.85c.37-.8.9-1.47 1.17-1.48.27 0 .5-.43.5-.96 0-.52.22-1.19.5-1.47.28-.3 1.29-1.94 2.24-3.68l2.7-4.92c.53-.98 1.2-2.06 1.5-2.4.3-.34.54-.75.54-.91 0-.16.8-1.43 1.78-2.82.97-1.4 1.77-2.77 1.77-3.06 0-.28.53-1.35 1.18-2.38a23.92 23.92 0 0 0 1.19-1.98c0-.06 1.2-2.14 2.66-4.61 1.47-2.48 2.9-4.95 3.18-5.49 1.19-2.34 2.8-5.2 3.15-5.64.22-.26 1.74-2.86 3.4-5.79 1.64-2.92 3.17-5.58 3.38-5.91.21-.32.57-1.03.8-1.57.24-.55.86-1.55 1.38-2.25.53-.69.96-1.5.96-1.82 0-.31.27-.79.6-1.06.32-.27.58-.74.58-1.03 0-.3.17-.55.37-.55.2 0 .5-.4.64-.88.15-.49.78-1.65 1.4-2.58a12.4 12.4 0 0 0 1.14-1.9c0-.12.27-.48.6-.8.32-.33.58-.93.58-1.35 0-.42.16-.76.35-.76.18 0 .86-1.02 1.5-2.27 1.92-3.73 4.13-7.74 4.62-8.37.25-.33.76-1.26 1.13-2.07.37-.81.83-1.48 1.03-1.48.2 0 .56-.49.8-1.08.23-.6.77-1.62 1.2-2.27.9-1.4 1.23-1.99 3.89-6.93 3.04-5.65 2.9-5.68-2.47-.56-4.4 4.2-8.07 7.6-11.08 10.25-1.72 1.51-4.41 4-5.97 5.51-1.56 1.52-3.6 3.47-4.54 4.34a1480.6 1480.6 0 0 0-14.93 14.1 22.71 22.71 0 0 1-2.52 2.26 5.7 5.7 0 0 0-1.78 1.78c0 .12-1.2 1.32-2.65 2.66-6.6 6.1-29.17 28.46-37.54 37.22-5.83 6.1-12.04 12.86-13.2 14.35a6.1 6.1 0 0 1-1.86 1.75c-.39.12-.7.48-.7.8 0 1.34-35.29 37.2-36.61 37.2-.23 0-.62.4-.88.89-2.5 4.78-15.23 9.96-18.05 7.33-1.57-1.46-.73-4.21 2.29-7.53a31.7 31.7 0 0 0 2.32-2.9c.53-.79 2.12-2.87 3.52-4.63l4.39-5.55c1-1.3 2.66-3.2 3.68-4.24a23.62 23.62 0 0 0 2.76-3.4c.9-1.5 1.71-2.48 8.2-9.94 5.54-6.36 8.67-10.13 8.67-10.42 0-.16 1.44-1.89 3.2-3.85a50.2 50.2 0 0 0 3.97-4.87c.42-.71 1.11-1.4 1.53-1.54.41-.13.76-.4.76-.6 0-.37 2.6-3.95 3.14-4.32.15-.1 1.3-1.52 2.56-3.15 2.44-3.18 5.89-7.23 7-8.23.39-.34.7-.83.7-1.08 0-.26.17-.53.38-.6.37-.13 1.84-1.96 6.48-8.02a40.28 40.28 0 0 1 3.17-3.74c.6-.55 1.72-1.88 2.5-2.96.8-1.08 1.75-2.2 2.14-2.48.38-.29.7-.7.7-.92 0-.49 1.2-2.11 5.51-7.44 3.91-4.83 4.64-5.78 6.57-8.57.78-1.14 1.58-2.07 1.77-2.07.18 0 .33-.23.33-.5 0-.28.53-1.13 1.17-1.88a5.9 5.9 0 0 0 1.18-1.78c.01-.23.41-.84.9-1.36a64.7 64.7 0 0 0 3.25-4.37c5.74-8.31 6.55-9.42 6.91-9.42.21 0 .39-.27.39-.6 0-.34.33-1.1.74-1.68.4-.59 1.53-2.3 2.5-3.83 4.86-7.6 5.59-8.68 5.89-8.8.18-.07.32-.37.32-.66 0-.3.23-.76.5-1.05.78-.82 1.87-2.62 1.87-3.1 0-.23.62-1.24 1.38-2.23.76-1 1.38-1.94 1.38-2.1 0-.16.69-1.33 1.53-2.6 2.02-3.06 5.46-9.01 8.85-15.32a66.93 66.93 0 0 1 3.03-5.32c.16-.1.4-.76.55-1.45.15-.69.53-1.46.84-1.72.31-.26.57-.82.57-1.25 0-.43.24-1.25.55-1.82.57-1.1.95-2.05 3.01-7.55.69-1.84 1.48-3.88 1.75-4.53.28-.65.81-2.25 1.2-3.55.38-1.3.94-3.05 1.25-3.9.36-1 .57-3.56.63-7.5l.08-5.98-1.38-2.28c-3.04-5.04-11.8-5.93-24.43-2.49l-4.45 1.22c-1.25.35-2.97.99-3.82 1.42a7.4 7.4 0 0 1-2.28.79c-.4 0-.9.16-1.1.36-.2.2-1.53.84-2.93 1.42a34.36 34.36 0 0 0-4.54 2.36c-1.08.7-2.41 1.42-2.95 1.58-.54.16-1.19.45-1.44.64-.4.32-1.54.95-5.46 3a77.66 77.66 0 0 0-7.73 5.2 42.7 42.7 0 0 1-2.96 2.09 83.9 83.9 0 0 0-4.28 3.05 47.64 47.64 0 0 1-4.14 2.85c-.54.27-1.16.7-1.38.96-.22.25-1.73 1.53-3.35 2.83-10.07 8.07-13.53 11.13-18.2 16.1-1.8 1.9-5.36 5.45-6.22 6.19-1.1.95-1.34 1.2-6.5 7.23-2.1 2.44-3.97 4.44-4.19 4.44-.21 0-.51.33-.67.75-.15.41-1 1.52-1.87 2.46-.87.94-2.45 2.82-3.5 4.18-1.06 1.35-2.06 2.46-2.22 2.46-.16 0-.48.53-.71 1.18-.23.65-.57 1.18-.76 1.18-.2 0-.54.41-.77.92-.23.5-1.1 1.7-1.94 2.69-2.95 3.44-3.68 4.43-3.68 4.96 0 .3-.49 1.01-1.09 1.6-.6.59-1.26 1.36-1.47 1.73-.33.56-1.91 2.92-6.53 9.78a51.94 51.94 0 0 0-2.89 4.92 14 14 0 0 1-1.33 2.17c-.43.54-1.16 1.78-1.62 2.76-.47.98-1.02 2.04-1.23 2.36-.6.94-3.15 6.63-3.15 7.04 0 .2-.44 1.14-.98 2.09a7.42 7.42 0 0 0-.99 2.72c0 .56-.26 1.9-.58 2.98a28.8 28.8 0 0 0-.7 5.7l-.1 3.74 1.43 1.43c3.48 3.48 11.13 3.07 22.21-1.2 1.09-.4 2.98-1.13 4.2-1.6a9.6 9.6 0 0 0 2.71-1.43c.27-.32.7-.58.96-.58s1.47-.7 2.67-1.57a27 27 0 0 1 3.12-1.99c1.67-.75 5.62-3.3 7.03-4.55a37 37 0 0 1 2.6-2 162.7 162.7 0 0 0 9.9-7.97 4 4 0 0 1 1.08-.84c.12 0 .53-.3.92-.69a148 148 0 0 1 7.33-6.38 14.7 14.7 0 0 0 1.28-.99l4.12-3.76a509.7 509.7 0 0 0 12.97-12.36c2.72-2.68 5.12-5.37 5.12-5.72 0-.81 4.86-4.38 5.97-4.38a1.72 1.72 0 0 1 1.6 2.36c-.65 1.76-14.47 16.41-21.59 22.88-6.99 6.35-7.23 6.58-9.37 8.6a26.38 26.38 0 0 1-3.2 2.6c-.7.44-2.33 1.74-3.6 2.88-2.2 1.96-5.36 4.27-11.22 8.19a39.53 39.53 0 0 0-3.67 2.73c-.58.54-1.16 1-1.28 1-.12 0-.66.34-1.22.78-.55.43-1.3.79-1.68.79-.38 0-.91.26-1.18.59a14.7 14.7 0 0 1-3.1 1.86c-1.44.7-2.7 1.36-2.81 1.47-.32.34-1.64 1.12-3.75 2.2l-2.56 1.33c-11.67 6.42-25.88 7.49-31.75 2.38-2.59-2.24-3.52-5.44-3.45-11.8.08-5.88 1.41-14.26 2.48-15.55.18-.23.47-1.12.63-1.99.16-.87.82-2.73 1.46-4.14.64-1.4 1.7-3.76 2.38-5.22.66-1.46 1.35-2.66 1.53-2.66.18 0 .32-.34.32-.76s.24-1 .54-1.3c.3-.3.68-.97.84-1.5.17-.54.7-1.6 1.18-2.35.48-.76 1-1.78 1.15-2.27.36-1.11 4.98-8.06 5.65-8.49.27-.17.5-.66.5-1.08 0-.43.13-.77.3-.77.16 0 .65-.66 1.08-1.46.43-.8 1.4-2.22 2.16-3.15 1.94-2.36 2.88-3.7 3.54-4.98.3-.61.88-1.28 1.27-1.5.39-.2.7-.56.7-.79 0-.59 6.38-8.27 9.6-11.56a37.19 37.19 0 0 0 3.63-4.2c1.66-2.6 21.92-22.41 25.7-25.14a59.04 59.04 0 0 0 6-4.88c1.24-1.13 6.2-4.6 6.6-4.62.16 0 1-.54 1.84-1.18a7.29 7.29 0 0 1 1.92-1.17c.2 0 .98-.53 1.72-1.19a6.03 6.03 0 0 1 1.69-1.18c.19 0 1.28-.63 2.43-1.4a56.32 56.32 0 0 1 5.72-3.14c2-.95 3.75-1.92 3.88-2.14.14-.23.53-.41.85-.41.33 0 1.16-.42 1.85-.92.69-.5 2.76-1.5 4.6-2.2 6.96-2.65 12.09-4.47 14-4.97 1.08-.28 2.5-.7 3.15-.91 3.49-1.16 4.52-1.43 6.5-1.7 1.2-.16 3.76-.56 5.71-.9 23.6-4.05 34.77 3.14 33.51 21.58-.24 3.59-.53 5.5-1.76 11.7-.35 1.76-3.49 10.86-5.16 14.97l-1.63 4.04c-1.77 4.46-8.88 18.85-11.15 22.56a252 252 0 0 0-4.15 7.49c-.7 1.3-1.49 2.63-1.76 2.95-.27.33-.92 1.47-1.43 2.55a70.05 70.05 0 0 1-4.59 7.5 63.8 63.8 0 0 0-1.72 2.56c-2.9 4.46-5.76 8.91-6.5 10.11-1.91 3.14-4.55 6.84-4.88 6.84-.19 0-.47.4-.63.89-.15.48-.38.97-.52 1.08-.14.1-1.57 2.2-3.18 4.63-1.62 2.44-3.07 4.43-3.25 4.43-.17 0-.3.34-.3.75 0 .4-.29.97-.63 1.25-.33.28-1.26 1.5-2.06 2.7a99.6 99.6 0 0 1-5.2 7 67.1 67.1 0 0 0-1.47 2c-1.85 2.6-4.77 6.57-5.3 7.23a78.74 78.74 0 0 1-3.67 4.7 98.38 98.38 0 0 0-4.04 5.27c-.92 1.32-1.85 2.46-2.07 2.54-.33.1-.6 1.26-.3 1.24.06 0 6.84-6.67 15.07-14.8a3004.3 3004.3 0 0 1 37.43-36.44 97.77 97.77 0 0 0 4.73-4.72 9.87 9.87 0 0 1 1.52-1.52c.68-.3 6.97-6.72 6.97-7.12 0-.23.13-.42.3-.42.16 0 3.3-2.95 6.99-6.55l15.2-14.88c9.96-9.75 23.96-23.28 28.26-27.31 4.04-3.8 7.02-4.23 7.8-1.15.33 1.32-1.96 6.63-3.3 7.66-.59.45-1.5 1.54-2.05 2.41-.54.88-1.1 1.6-1.23 1.6-.15 0-.37.44-.51.98s-.4.98-.6.98c-.2 0-.74.8-1.2 1.78-.48.97-1 1.77-1.16 1.77-.16 0-.7.84-1.21 1.87a12.04 12.04 0 0 1-1.19 2.07c-.14.11-.76 1.09-1.38 2.17a25 25 0 0 1-1.63 2.58c-.28.33-.98 1.49-1.55 2.56a49.25 49.25 0 0 1-2.17 3.65c-.63.93-1.15 1.79-1.15 1.9 0 .12-.5.95-1.13 1.86-1.93 2.8-5 7.75-6.38 10.3-.47.87-1.5 2.53-2.29 3.68a76.25 76.25 0 0 0-1.82 2.76c-.57.97-4.09 6.82-4.65 7.74-.26.42-.7 1.01-.97 1.3-.27.3-.5.75-.5 1 0 .26-.54 1.17-1.19 2.02a6.43 6.43 0 0 0-1.17 2.04c0 .27-.42 1-.93 1.6-.51.62-1.31 1.83-1.78 2.7-.47.86-1.2 2.1-1.63 2.75-.43.65-1.11 1.9-1.52 2.79a9.94 9.94 0 0 1-1.36 2.21 36.9 36.9 0 0 0-2.65 4.11c-1.12 1.93-2.7 4.57-3.52 5.87-1.2 1.9-4.68 7.94-6.26 10.83-.78 1.44-1.3 2.33-2.7 4.67-5.15 8.6-8.78 14.94-8.78 15.35 0 .2-.35.82-.78 1.36-.42.54-1.37 2.12-2.1 3.5s-1.69 3.14-2.13 3.9c-4.43 7.58-4.76 8.27-3.86 8.27.33 0 .6-.25.6-.55 0-.6 1.92-2.88 5.9-7.03 1.41-1.46 3.63-3.84 4.93-5.28a260.6 260.6 0 0 1 4.53-4.89c1.2-1.24 4.83-5.05 8.08-8.46 3.25-3.4 6.33-6.58 6.84-7.04.8-.74 14.29-14.26 15.82-15.87.33-.34 3.96-3.9 8.08-7.9s10.6-10.33 14.42-14.05c3.81-3.72 8.25-7.98 9.85-9.46 1.61-1.49 4.81-4.5 7.11-6.7 2.3-2.2 5.66-5.33 7.46-6.96 3.62-3.29 4.25-3.87 10.82-10.05a93.68 93.68 0 0 1 5.2-4.66c.56-.33 1.06-.78 5.64-5.1 2.57-2.42 7.5-6.8 9.45-8.4.76-.63 1.52-1.35 1.69-1.62.17-.27 1.94-1.8 3.94-3.41s4.17-3.42 4.82-4.03c.65-.6 3.02-2.7 5.27-4.67l5.33-4.64a5.86 5.86 0 0 1 1.53-1.09 9.4 9.4 0 0 0 1.96-1.6c.9-.86 2.36-2.05 3.23-2.63a31.7 31.7 0 0 0 2.58-1.91 16.5 16.5 0 0 1 2.34-1.6 13.6 13.6 0 0 0 2.76-2.26c.77-.83 1.85-1.74 2.4-2.03.54-.29 1.43-.94 1.96-1.45.54-.52 2.84-2.17 5.12-3.67a139.11 139.11 0 0 0 7.08-4.93 66.7 66.7 0 0 0 2.2-1.58c3.1-2.31 9.2-6.3 9.66-6.3.44 0 .92-2.58.58-3.13-.14-.23-.69-.42-1.22-.42-.74 0-.96-.2-.96-.9 0-.53-.5-1.32-1.17-1.88-.64-.53-1.17-1.19-1.18-1.46 0-.27-.28-.49-.6-.49-.35 0-.6-.37-.62-.89 0-.48-.54-1.32-1.18-1.85-.64-.53-1.16-1.2-1.16-1.48s-.18-.5-.4-.5c-.5 0-1.97-1.47-1.97-1.98a.4.4 0 0 0-.4-.4c-.5 0-1.96-1.45-1.96-1.96 0-.22-.27-.4-.6-.4a.6.6 0 0 1-.58-.59c0-.32-.18-.59-.4-.59-.57 0-1.97-1.48-1.97-2.09 0-.65-.8-1.46-1.44-1.46-.8 0-3.3-2.71-3.37-3.68-.05-.61-.35-.9-.98-.96-.93-.08-2.48-1.36-2.48-2.06 0-.21-.27-.39-.6-.39a.6.6 0 0 1-.59-.6.6.6 0 0 0-.59-.58.6.6 0 0 1-.59-.6c0-.32-.18-.58-.39-.58-.62 0-2.36-1.66-2.13-2.03.11-.19-.04-.34-.34-.34-.3 0-1.05-.53-1.67-1.18-.81-.85-1.5-1.18-2.44-1.18-1.26 0-1.6-.52-1.35-2.07.02-.16-.4-.3-.96-.3-.56 0-1.4-.43-1.92-.98-.5-.54-1.11-.99-1.36-.99-.4 0-.6-.53-.49-1.28.02-.16-.49-.3-1.14-.3-.78 0-1.18-.2-1.18-.59a.6.6 0 0 0-.59-.59.6.6 0 0 1-.59-.59c0-.32-.25-.59-.56-.59-.3 0-.62-.18-.69-.4-.07-.22-.93-.54-1.9-.71-1.03-.19-1.73-.52-1.68-.79.06-.25-.16-.46-.5-.46a.6.6 0 0 1-.58-.6.6.6 0 0 0-.6-.59c-.32 0-.58-.24-.58-.54 0-.3-.38-.64-.83-.76-.46-.12-.71-.4-.57-.64.17-.28-.36-.42-1.54-.42-1.33 0-1.8-.15-1.8-.6a.6.6 0 0 0-.58-.58.6.6 0 0 1-.6-.6c0-.36-.37-.59-.98-.59-.98 0-2.56-1.21-2.56-1.97 0-.21-.53-.39-1.18-.39-.8 0-1.19-.2-1.19-.6 0-.38-.4-.58-1.18-.58-.7 0-1.18-.2-1.18-.5 0-.29-.49-.55-1.08-.6-.66-.04-1.5-.54-2.1-1.26-.79-.92-1.34-1.19-2.47-1.19-1.02 0-1.44-.17-1.44-.59 0-.4-.4-.6-1.19-.6-.79 0-1.18-.19-1.18-.58 0-.4-.4-.6-1.2-.6-.7 0-1.28-.24-1.42-.58-.12-.33-.65-.6-1.17-.6-.57 0-.94-.23-.94-.59 0-.46-.52-.59-2.36-.59-1.84 0-2.37-.13-2.37-.59a.6.6 0 0 0-.6-.59c-.33 0-.7-.23-.8-.51-.1-.28-.86-.55-1.66-.6-.81-.05-1.67-.36-1.9-.68-.25-.32-1.08-.58-1.9-.58-.91 0-1.52-.2-1.67-.59-.14-.38-.76-.59-1.76-.59-1.1 0-1.53-.16-1.53-.59 0-.39-.39-.59-1.13-.59-.63 0-1.36-.26-1.63-.59-.31-.38-1.18-.6-2.41-.6-1.45 0-1.92-.14-1.92-.58 0-.47-.55-.6-2.56-.6-2.02 0-2.57-.12-2.57-.59 0-.46-.56-.59-2.7-.59-1.94 0-2.86-.17-3.2-.59-.28-.32-1.08-.59-1.78-.59s-1.5-.27-1.78-.6c-.27-.32-.7-.57-.93-.54-2.5.3-6.95-.11-6.95-.63 0-.48-.6-.6-3.1-.6-2.4 0-3.17-.13-3.34-.58-.35-.9-50.88-.9-51.38-.01m215.46 62.75c0 .3.48.5 1.18.5.8 0 1.18-.19 1.18-.59 0-.42-.35-.57-1.18-.5-.65.04-1.18.3-1.18.59m8.77-.39c-.86.3-.53.9.49.9.54 0 .99-.16.99-.36 0-.45-.85-.76-1.48-.54m-13.5 1.49c0 .32.35.59.77.59.53 0 .7-.19.55-.6-.12-.32-.47-.58-.77-.58-.3 0-.55.26-.55.59m-4.47.85c-.56.57-.2.92.92.92.8 0 1.19-.2 1.19-.59 0-.6-1.6-.84-2.1-.33m19.44.63c0 .53.23.95.53.95.67 0 .63-1.52-.04-1.74-.3-.1-.5.2-.5.79m-22.06.88c0 .33.26.6.59.6a.6.6 0 0 0 .59-.6.6.6 0 0 0-.6-.59.6.6 0 0 0-.58.6m-2.29 1.19c-.42.48-.37.58.3.58.45 0 .8-.26.8-.6 0-.73-.44-.73-1.1.02m24.85.44c-.59.24-.67 2.5-.1 2.5.22 0 .42-.13.44-.3.06-.29.2-2.49.17-2.43-.01.02-.24.12-.51.23m-29.83 1.98c-.12.32.1.52.58.52.43 0 .77-.24.77-.52 0-.3-.25-.53-.57-.53a.9.9 0 0 0-.78.53m-2.2 1.11c0 .33.27.6.6.6a.6.6 0 0 0 .59-.6.6.6 0 0 0-.6-.59.6.6 0 0 0-.58.6m-2.2 1.16c-.74.57-.74.58.13.6.53 0 .89-.23.89-.59 0-.73-.06-.73-1.01 0m29.68.16c-.78.78-.89 1.22-.3 1.22.48 0 1.97-1.25 1.97-1.66 0-.54-.96-.29-1.67.44m-33.23 2.2c-.75.56-.74.57.12.59.53 0 .89-.23.89-.58 0-.73-.06-.73-1.01-.01m30.17-.26c0 .2.28.49.63.62.38.15.56.06.46-.23-.2-.59-1.09-.91-1.09-.4m-32.9 1.2c-.44.44-.16.85.59.85.43 0 .78-.23.78-.52 0-.5-.97-.74-1.38-.33m31.8.1c.08.23.31.42.52.42.2 0 .44-.2.52-.43.07-.23-.16-.42-.52-.42s-.6.2-.52.42m-33.71 1.04c-.44.44-.27.9.34.9.32 0 .59-.16.59-.37 0-.5-.62-.85-.93-.53m30.1 1.26c0 .19.26.45.58.58.36.13.6 0 .6-.36a.59.59 0 0 0-.6-.58c-.32 0-.59.16-.59.36m-1.1 1.25c.07.23.3.42.51.42.2 0 .44-.19.52-.42.07-.23-.16-.42-.52-.42s-.6.19-.51.42m-7.17 4.66c0 .2.26.45.59.58.36.14.59 0 .59-.35a.59.59 0 0 0-.6-.58c-.32 0-.58.15-.58.35m-5.13 3.55c0 .44 1.03.85 1.34.53.48-.47.22-.89-.55-.89-.43 0-.79.16-.79.36m-3.12 2.7c.02.41.11.49.23.2.11-.28.36-.4.56-.28.2.12.36.03.36-.2 0-.22-.26-.41-.59-.41-.32 0-.57.3-.56.69m-3.58 2.07c0 .21.27.39.6.39.32 0 .59-.18.59-.4 0-.21-.27-.39-.6-.39-.32 0-.59.18-.59.4m-77.03 107.63c3.53.88 5.24 6.2 3.15 9.8a26 26 0 0 0-.99 1.93c-1.37 3.07-9.2 10.5-15.48 14.7-4.47 3-6.83 4.5-7.77 4.97-.55.26-1.52.83-2.17 1.26-.65.43-1.92 1.18-2.82 1.67-.9.5-4.23 2.34-7.4 4.12a87.87 87.87 0 0 1-6.63 3.5 5.2 5.2 0 0 0-1.67.95c-.44.39-1.5.93-2.36 1.2-.86.28-2.1.83-2.76 1.23-.65.4-1.4.73-1.67.73-.26 0-1.42.42-2.56.93a71.82 71.82 0 0 1-8.67 3.18c-1.15.25-3.73 3.76-6.43 8.75l-2 3.7a4.4 4.4 0 0 0-.55 1.59c0 .33-.18.79-.4 1-1.3 1.32-1.32 6.54-.01 7.24 1.03.56 8.23-1.49 13.22-3.75l3.79-1.72c1-.45 1.95-.82 2.12-.82.17 0 1.97-.8 4-1.77a45.9 45.9 0 0 1 3.96-1.78c.48 0 3.66-1.64 3.88-2 .13-.2.47-.36.77-.36.3 0 3.18-1.76 6.39-3.9 3.2-2.16 6.66-4.35 7.68-4.9a30.53 30.53 0 0 0 3.14-1.9 23.5 23.5 0 0 1 3.48-2.16 17.6 17.6 0 0 0 1.97-1.3c.76-.56 2-1.36 2.76-1.78.76-.42 1.61-1 1.9-1.28 2.38-2.35 5.7 1.45 4.02 4.59-.41.77-4.1 3.56-4.71 3.56-.2 0-.64.28-.98.62-.63.63-8.03 5.69-8.33 5.69-.09 0-1.32.7-2.74 1.57a19.2 19.2 0 0 1-2.89 1.58c-.17 0-1.01.53-1.87 1.17a8.06 8.06 0 0 1-1.88 1.19 45.7 45.7 0 0 0-4.53 2.53c-2.3 1.4-5 2.84-5.97 3.22-.98.38-2.12.93-2.55 1.22-.43.29-1 .52-1.29.52-.28 0-1.17.42-1.98.93-.81.5-1.91 1.02-2.46 1.15a57.78 57.78 0 0 0-5.71 1.88 21.9 21.9 0 0 1-5.35 1.76c-.94.16-1.99.44-2.32.62-.55.3-1.62.57-6.1 1.53a8.83 8.83 0 0 1-10.86-7.74c-.4-3.2.06-12.05.65-12.8.23-.29.54-1.29.68-2.22.14-.93.43-2 .63-2.37.2-.37.92-1.9 1.6-3.42 1.39-3.11 4.63-8.48 5.12-8.48.18 0 .44-.53.58-1.18.14-.65.47-1.31.73-1.48.26-.16 1.38-1.45 2.5-2.86 2.94-3.71 12.48-12.84 15.63-14.94a188.9 188.9 0 0 1 9.57-6.13c2.14-1.3 4.47-2.75 5.18-3.23.72-.48 1.87-1.1 2.57-1.38.69-.29 3.3-1.54 5.79-2.8 7.94-3.97 14.47-6.6 18.72-7.51 1.64-.35 7.01-.25 8.68.18m-12.55 6.64c-6.13 2.4-16.44 9.68-25.1 17.75-3.13 2.91-9.06 8.83-9.06 9.05 0 .13-1.15 1.39-2.56 2.79-1.4 1.4-2.56 2.72-2.56 2.94 0 .22-.36.62-.8.89-.43.27-.78.67-.78.88 0 .56 1.21.48 1.94-.13.34-.29 2.3-1.46 4.37-2.61a46.92 46.92 0 0 0 3.94-2.35c.1-.14 1.52-1.05 3.15-2.02a30.23 30.23 0 0 0 3.6-2.41c.92-.91 6.54-5.28 9.66-7.5a19.09 19.09 0 0 0 3.16-2.66c.31-.45.74-.81.94-.81.53 0 11.8-11.38 11.8-11.92 0-.24.28-.75.63-1.13 1.33-1.48.34-1.8-2.33-.76"
      fill="#acd3d3"
    />
    <path
      d="M383.45 68.74c0 .34.28.62.62.62.7 0 .58-.85-.15-1.1-.26-.08-.47.13-.47.48m-4.73 1.21c0 .33.32.6.72.6.4 0 .72-.27.72-.6 0-.32-.32-.59-.72-.59-.4 0-.72.27-.72.6m2.46-.33c.38.1 1 .1 1.38 0 .38-.1.07-.18-.69-.18s-1.07.08-.69.18m13.73.42c.3.38.58.76.64.85.06.1.12-.22.12-.69 0-.52-.25-.85-.64-.85-.55 0-.57.1-.12.69m-18.8 1.08c-.14.34-.72.6-1.37.6-.75 0-1.14.2-1.14.58 0 .77-.1.79 2.6-.58 1.97-1 2.16-1.18 1.23-1.18-.62 0-1.2.25-1.33.58M167.5 73.3a61.51 61.51 0 0 0-10.84 1.82c-2.1.6-1.98.58 5.32-.65 20.24-3.41 31.5.42 33.9 11.52l.36 1.7-.13-1.8c-.7-9.79-10.4-14.06-28.61-12.59m203.74.22c0 .5.15.53.89.14 1.3-.67 1.32-.74.16-.74-.68 0-1.05.2-1.05.6m22.76.97c-.8.88-1.78 1.58-2.24 1.58-.45 0-.81.17-.81.38s-.58.69-1.29 1.05c-.7.37-1.06.74-.8.83.27.09.97-.3 1.58-.85.6-.56 1.49-1.02 1.98-1.02.53 0 .89-.24.89-.59 0-.33.35-.59.81-.59.48 0 .7-.17.55-.42-.14-.23.07-.66.47-.95.4-.3.63-.64.5-.77-.13-.12-.87.48-1.64 1.35m-25.12.3c0 .42.12.52.3.25.16-.23.55-.53.88-.65.4-.15.3-.24-.3-.26-.6-.02-.88.2-.88.66m-194.49.87c-1.55.16-.46.23 3.16.23 3.47 0 4.86-.11 3.74-.28-2.02-.3-3.54-.3-6.9.05m191.73.21c0 .33-.35.6-.77.6-.84 0-1.45.68-1 1.1.17.15.38.05.48-.22a.8.8 0 0 1 .7-.5c.3 0 .77-.23 1.06-.52a4 4 0 0 1 1.11-.76c.34-.13.14-.24-.5-.26-.71-.02-1.08.17-1.08.56m-203.75 1.95a71.44 71.44 0 0 0-13.1 4.72c-1.14.53-2.87 1.3-3.84 1.71-2.57 1.1-14.49 7.83-16.44 9.3a270.95 270.95 0 0 1-8.02 5.71c-2.08 1.46-4.3 3.05-4.93 3.54a274.22 274.22 0 0 0-8.44 6.77 69.5 69.5 0 0 1-3.55 2.77c-3.98 2.98-19.64 18.37-24.54 24.11-1.9 2.23-5.14 6-7.21 8.39a64.07 64.07 0 0 0-4.16 5.12c-.45.9 1.22-.86 3-3.15a77.6 77.6 0 0 1 5.57-6.48 262.5 262.5 0 0 0 5.32-5.93c4.48-5.16 17.04-17.48 21.43-21.02 2.17-1.75 5.1-4.14 6.5-5.3 4.18-3.47 7.41-5.88 13.81-10.3 1.62-1.11 4.45-3.08 6.29-4.36 1.84-1.29 3.53-2.35 3.75-2.36.22 0 1.02-.43 1.77-.94.76-.52 2.53-1.53 3.94-2.25a20.8 20.8 0 0 0 2.76-1.58 29.7 29.7 0 0 1 4.83-2.34c.12 0 1.6-.63 3.3-1.4 5.65-2.56 6.6-2.9 12.56-4.48 3.25-.86 6.35-1.64 6.9-1.73.85-.14.82-.17-.2-.19-.66-.01-3.94.74-7.3 1.67m21.28-1.34c.33.23 1.24.75 2.04 1.17.79.42 1.82 1.4 2.3 2.17.49.78.97 1.33 1.07 1.22.64-.64-4.17-4.98-5.5-4.97-.34 0-.32.13.1.41m-36.99 1.21c-3.59 1.14-2.83 1.25.93.14 1.73-.51 2.8-.93 2.36-.93-.43 0-1.91.36-3.29.8m215.17.75c-1.2 1-.6 1 .93-.02.65-.43.92-.78.59-.77-.33 0-1.01.36-1.52.79m-219.78 1c-.76.6-.76.6.02.24.43-.2 1.05-.46 1.38-.58.5-.19.5-.22-.02-.25-.34-.02-.96.24-1.38.58m217.39-.12c-.02.41-.34.69-.8.69-.88 0-1.4.62-.82.98.55.34 2.11-1.2 1.86-1.84-.14-.34-.22-.29-.24.17m26.37.89c-.34.4-.35.59-.05.59.25 0 .45-.17.45-.37 0-.2.3-.44.69-.54.58-.15.59-.19.05-.23-.36-.02-.87.22-1.14.55m-249.26 1.3c-1.96.8-4.8 2.1-6.3 2.87-9 4.63-12.27 6.37-12.8 6.84-.33.29-1.36.9-2.28 1.36-.92.47-1.67 1-1.67 1.2 0 .2-.38.48-.84.63-1.43.45-7.8 4.84-12.76 8.8l-6.45 5.12c-1.5 1.2-12.06 11.3-16.91 16.19-.96.96-3.35 3.62-5.31 5.9a165.05 165.05 0 0 1-4 4.56 125 125 0 0 0-3.2 3.52 766.13 766.13 0 0 1-3.81 4.3c-.59.65-1.74 2.17-2.56 3.38a16.27 16.27 0 0 1-2.19 2.72c-.38.28-.7.68-.7.88 0 .2-1.16 1.92-2.58 3.82-9.36 12.52-21.52 36.06-21.43 41.48 0 .33.69-1.36 1.51-3.74a114.76 114.76 0 0 1 6.41-15.07c.9-1.68 2.4-4.5 3.33-6.28 2.15-4.04 8.83-14.12 12.29-18.53.37-.47 1.12-1.5 1.66-2.28a99.02 99.02 0 0 1 7.25-9.07 426.3 426.3 0 0 0 6.53-7.49c6.6-7.75 20.49-21.42 26.1-25.7a263.5 263.5 0 0 0 5.88-4.64 73.57 73.57 0 0 1 5.46-4.03c1.42-.91 3.01-1.98 3.55-2.36.54-.4 1.47-.92 2.07-1.18.6-.26 1.1-.65 1.1-.86 0-.21.4-.51.88-.67.49-.15 1.6-.76 2.46-1.35a67.8 67.8 0 0 1 5.52-3.1c2.17-1.12 5.43-2.81 7.25-3.77a52.54 52.54 0 0 1 3.94-1.93c1.58-.48 7.27-3 6.74-3-.32.01-2.19.67-4.14 1.48m247.11.27c-.64.53-1.03 1.1-.86 1.26.17.17.49 0 .7-.37.2-.38.64-.69.95-.69.32 0 .57-.27.57-.6 0-.73.04-.74-1.36.4m-27.66 0c-.12.33-.65.6-1.17.6-.57 0-.94.22-.94.59 0 .32-.25.59-.56.59-.31 0-.8.22-1.1.49-.84.78-3 2.27-3.31 2.27-.15 0-.91.48-1.7 1.08-.77.6-2.56 1.87-3.97 2.83-1.4.97-2.74 1.9-2.95 2.07a77.35 77.35 0 0 1-5.6 4.01 27.66 27.66 0 0 0-3.3 2.45c-.25.3-.65.56-.88.56-.24 0-.88.43-1.43.96a25.9 25.9 0 0 1-2.28 1.87 423.34 423.34 0 0 0-12.52 9.6 26.7 26.7 0 0 1-2.66 2.01c-.38.2-1.8 1.38-3.16 2.61-1.35 1.23-3.37 3-4.48 3.93a551.3 551.3 0 0 0-6.3 5.4 342.93 342.93 0 0 1-4.82 4.14c-.3.23-1 .88-1.58 1.45-.57.58-2.38 2.17-4 3.55-3.67 3.1-5.18 4.47-9.01 8.17-3.4 3.29-1.23 1.53 4.03-3.26 4.25-3.88 3.95-3.62 6.37-5.62 1.1-.9 2.8-2.4 3.78-3.34 1-.95 2.67-2.43 3.72-3.3 1.05-.86 5.11-4.32 9.02-7.68a261.4 261.4 0 0 1 15.96-12.8c1.5-1.1 5.6-4.26 7.9-6.1 1.04-.83 4.3-3.15 9.8-6.98a141.8 141.8 0 0 0 4.33-3.12c.57-.45 2.29-1.64 3.8-2.65a77.46 77.46 0 0 0 3.24-2.24c.26-.22.93-.6 1.48-.85.55-.25 1-.59 1-.75 0-.15.44-.4.99-.53.54-.14.98-.42.98-.64 0-.2.25-.38.55-.38.9 0 2.58-1.55 1.7-1.57-.38 0-.8.26-.93.58m-166.59.99c.14.76.4 1.73.57 2.17l.31.78v-.78c0-.44-.26-1.41-.56-2.17l-.56-1.38.24 1.38m190.27 2c-.14.24-.06.63.18.87.32.32.44.2.44-.43 0-.95-.2-1.1-.62-.44m-2.03 1.33c-.37.43-.34.59.14.77.76.3 1.32-.03 1.32-.78 0-.7-.83-.7-1.46 0M196.4 91.44c0 2.06.06 2.9.15 1.87.08-1.03.08-2.71 0-3.74-.09-1.03-.15-.2-.15 1.87m177.86-3c-.21.55.02 1.03.5 1.03.13 0 .24-.36.24-.79 0-.9-.43-1.05-.74-.24m-2.38 1.67c-.63.54-1.04 1.06-.94 1.17.11.11.7-.25 1.3-.8 1.41-1.33 1.1-1.63-.36-.37M189.6 93.05c-.27 1.75-.41 3.26-.32 3.36.1.1.4-1.26.67-3.01.27-1.75.42-3.27.32-3.36-.1-.1-.4 1.25-.67 3m179.07-.54c-1.32.33-3.6 2.87-2.57 2.87.45 0 .94-.31 1.08-.69.33-.87 1.12-1.68 1.64-1.68.22 0 .5-.17.64-.39.13-.22.19-.37.12-.35-.07.03-.48.14-.91.24m-6.5 4.5c-6.26 4.7-6.78 4.9-7.8 3.1-1.05-1.82-3.54-1.8-7.86.06-5.71 2.46-8.22 3.88-6.85 3.88.21 0 .5-.17.62-.37.68-1.1 9.29-4.36 11.51-4.36 1.59 0 1.79.1 2.16 1.18.39 1.1.92 1.39 2.27 1.2.3-.04 1.99-1.17 3.75-2.5 1.76-1.35 3.64-2.73 4.18-3.09.53-.35.88-.73.78-.83-.11-.1-1.35.68-2.76 1.74m-166.24.19c-.15 4.4-3.75 17.9-5.85 21.94-.32.62-.5 1.2-.4 1.3 1.11 1.13 6.76-19.07 6.47-23.18l-.14-2.09-.07 2.03m-7.52 1.75c-.24.7-.43 1.55-.41 1.9.01.34.27-.16.57-1.13.63-2.02.5-2.65-.16-.77m-.79 3.53c-.02.55-.22 1.18-.43 1.4-.21.2-.73 1.35-1.15 2.54-1.4 3.93-4.4 11.58-5.16 13.19-.41.86-.94 2.02-1.17 2.56-.23.54-.88 1.78-1.44 2.76-.56.97-1.76 3.19-2.67 4.92a264.4 264.4 0 0 1-8.68 14.89 222.28 222.28 0 0 0-3 4.93c-.33.59-.94 1.6-1.36 2.25-1.62 2.55-7.95 12.38-10.03 15.57A811.88 811.88 0 0 1 141.01 184a68.03 68.03 0 0 0-2.6 3.83c-.52.95-3.83 5.4-4.96 6.68-.36.41-1.69 2.08-2.94 3.7a979.44 979.44 0 0 1-4.62 5.97l-3.92 5.09c-.87 1.14-2.55 3.24-3.75 4.67a136.3 136.3 0 0 0-3.52 4.38c-.74.97-1.53 1.95-1.77 2.16-.24.22-1.03 1.2-1.77 2.17s-1.55 1.95-1.79 2.17a25.3 25.3 0 0 0-1.8 2.18c-.75.99-2.55 3.2-4 4.93a1044.7 1044.7 0 0 0-10.74 12.99l-4.7 5.71a413.7 413.7 0 0 1-3.89 4.72c-3.31 3.86-7.4 8.95-7.4 9.24 0 .2.07.28.15.2a4044.55 4044.55 0 0 0 12.27-14.94c1.08-1.33 2.82-3.42 3.85-4.66 1.03-1.23 2.23-2.69 2.67-3.23 1.95-2.42 6.08-7.4 7.02-8.46.58-.65 1.3-1.56 1.63-2.03.5-.72 3.84-4.8 13.18-16.11 2.22-2.68 5.25-6.55 10.17-12.94 1.02-1.34 2.23-2.87 2.68-3.42.45-.54 1.3-1.63 1.88-2.41.58-.8 1.7-2.21 2.48-3.16.78-.94 2.45-3.22 3.72-5.07a892.43 892.43 0 0 1 6.78-9.78c.94-1.37 2.31-3.32 3.04-4.33 1.41-1.95 6.03-8.78 7.51-11.1l3.74-5.92c1.57-2.5 3.48-5.5 4.25-6.7 4.2-6.57 4.79-7.53 6.52-10.75.26-.48 1.46-2.56 2.67-4.62 4.1-6.97 7.84-14.29 9.79-19.11.7-1.73 1.6-4.1 2.78-7.3a69.4 69.4 0 0 1 1.84-4.58c.33-.68.51-1.56.4-1.97-.13-.54-.2-.47-.23.27M334 106.72a174.43 174.43 0 0 0-6.85 4.43c-1.39.96-3.38 2.33-4.44 3.04a190.3 190.3 0 0 0-11.37 8.74 90.8 90.8 0 0 1-3.74 2.98c-.87.64-1.78 1.34-2.03 1.56-.25.23-2.78 2.27-5.63 4.55a406.92 406.92 0 0 0-13.67 11.23 80.2 80.2 0 0 1-2.94 2.56c-1.16.98-3.71 3.2-5.67 4.93a358.12 358.12 0 0 1-5.14 4.49 544.3 544.3 0 0 0-11.86 10.88l-6.13 5.7a729.8 729.8 0 0 0-10.78 10.31l-11.33 11.07c-2.98 2.91-5.41 5.45-5.41 5.64 0 .2 4.38-4 9.75-9.32a852.15 852.15 0 0 1 13.3-12.96l5.71-5.34c1.2-1.13 3.41-3.18 4.93-4.55 1.52-1.38 3.29-3.05 3.94-3.71 1.87-1.92 6.52-6.15 8.65-7.88a97 97 0 0 0 4.13-3.6 522.85 522.85 0 0 1 23.62-19.8 37.96 37.96 0 0 0 2.42-1.96c.1-.14.48-.43.83-.65.67-.4 4.16-3.19 5.87-4.66 1.8-1.56 5.86-4.78 7.77-6.17a30.54 30.54 0 0 0 2.08-1.6c.1-.13 1.33-1.02 2.73-1.98l4.73-3.27a148 148 0 0 1 6.14-3.9c4.74-2.86 5.61-3.44 5.1-3.43-.2 0-2.33 1.2-4.71 2.67m-95.84 12.62c-3.58 2.98-9.82 8.98-33.23 31.99a11950.5 11950.5 0 0 1-50.3 49.1c-6.25 6.1-12.74 12.41-14.42 14.03-1.68 1.62-3.06 3.1-3.06 3.29 0 .18 2.44-2.08 5.42-5.04s6.13-6.04 7-6.86a6000.3 6000.3 0 0 0 33.86-32.96 3877.7 3877.7 0 0 1 15.4-15.05c4.55-4.42 12.26-11.95 17.14-16.74 24.3-23.83 24.4-23.9 26.26-22.68 1.64 1.08.67 3.83-2.73 7.71a38.14 38.14 0 0 0-3.15 4.2l-4.59 7.5a558.08 558.08 0 0 1-5.35 8.57 142.78 142.78 0 0 0-3.16 5.13 38.72 38.72 0 0 1-2.04 3.19 5.8 5.8 0 0 0-.9 1.5c0 .16-.54 1.06-1.19 2a9.82 9.82 0 0 0-1.18 2.03c0 .58 2.04-2.47 5.95-8.92a916.4 916.4 0 0 1 7.07-11.43 150.2 150.2 0 0 0 3.72-6.1c.34-.66.93-1.63 1.33-2.17.4-.55 1.24-1.77 1.86-2.71.62-.95 1.64-2.2 2.27-2.76 5.43-4.95 3.55-11.42-1.98-6.82m-49.8 4.49c-1.76 4.38-11.16 22.92-14.63 28.89-5.47 9.37-10.1 17.05-11.16 18.51-.48.65-1 1.45-1.18 1.78-.5.93.4 0 1.52-1.58 1.4-1.97 8.82-14.27 11.26-18.67.7-1.27 1.8-3.17 2.41-4.22 3.17-5.37 12.84-25.46 12.45-25.85-.08-.09-.38.43-.67 1.14m86.05 22.48c-.17.27-1.1 1.18-2.08 2.03-3.01 2.6-23.68 21.82-33.1 30.75-11.8 11.18-50.7 49.98-56.94 56.77a671 671 0 0 1-8.66 9.26 230.9 230.9 0 0 0-7.28 8.08c-6.28 7.33-7.68 8.07-4.29 2.26a566.18 566.18 0 0 0 8.63-15.26c.2-.44.52-1.06.72-1.38.2-.33 1.3-2.19 2.43-4.14 1.14-1.95 2.45-4.17 2.93-4.93 1.5-2.38 3.01-5.34 2.42-4.72-.31.32-1 1.38-1.54 2.36-.53.98-2.03 3.55-3.32 5.71-2.4 4.02-3.16 5.37-7.33 13-1.3 2.4-2.5 4.52-2.66 4.74-.92 1.2-4.72 8.16-4.72 8.64 0 1.7 1.18.7 6.29-5.3a82.79 82.79 0 0 1 2.95-3.34c.24-.22 2.56-2.7 5.15-5.52 2.6-2.81 6.15-6.63 7.9-8.47 1.75-1.84 4.25-4.5 5.54-5.91 2.44-2.66 4.05-4.27 25.66-25.62 23.7-23.42 38.83-37.97 48.76-46.9 1.09-.97 3.22-2.93 4.74-4.35 1.52-1.41 3.91-3.61 5.32-4.88 2.38-2.14 3.47-3.38 3-3.38-.11 0-.34.22-.52.5m-207.63 5.32c-.76.85-5.2 6.51-6.28 7.99-2.46 3.4-3.32 4.77-2.9 4.63.26-.08.77-.72 1.14-1.4.37-.7 1.9-2.81 3.41-4.71a137.6 137.6 0 0 0 3.7-4.83 12 12 0 0 1 1.55-1.86c.32-.27.46-.5.3-.5-.17 0-.58.3-.92.68m138.55 4.88c-1.2 1.12-3.5 3.23-5.12 4.7-5.33 4.78-10.06 9.42-9.63 9.42.23 0 .78-.39 1.21-.88 2.4-2.7 15.47-14.48 16.06-14.48.56 0 .16 1.34-.75 2.53-.54.7-.98 1.39-.98 1.51 0 .12-.65 1.35-1.44 2.72-.79 1.38-1.92 3.39-2.52 4.47-.6 1.09-1.8 3.13-2.68 4.53a329.92 329.92 0 0 0-7.48 13c-.52.98-1.39 2.45-1.94 3.27-.55.81-.92 1.57-.82 1.67.18.17 3.25-4.8 4.75-7.67.4-.77 1.07-1.93 1.49-2.58.42-.65 1.15-1.9 1.62-2.76.47-.87 1.9-3.29 3.16-5.38a55.48 55.48 0 0 0 2.31-4c0-.24 3.65-6.57 4.93-8.55 2.45-3.8 1.2-4.67-2.17-1.52m-83.74 9.95c-9 9.15-16.4 16.18-18.46 17.54-1.6 1.07-5.39 4.54-5.39 4.95 0 .2.85-.43 1.88-1.41 1.03-.98 2.65-2.4 3.62-3.13 3.17-2.43 13.88-12.63 20.26-19.28 8.37-8.73 8.54-8.86 9.33-7 .37.87.37.87.28-.1-.25-2.65-1.58-1.68-11.52 8.43m6.09-2.03-5.77 6.21c-.89.96-6.7 6.7-7.97 7.88l-3.6 3.35a218.12 218.12 0 0 1-5.3 4.8c-9.02 7.75-12.16 10.32-15.6 12.76-2.15 1.53-3.91 2.88-3.91 3 0 .13.4-.06.88-.41.5-.36 1.33-.95 1.88-1.32a106 106 0 0 0 7.68-5.81 313 313 0 0 1 4.14-3.43 81.8 81.8 0 0 0 3.32-2.87c.86-.8 1.76-1.56 2.02-1.71 2.87-1.7 28.45-27.67 27.25-27.67-.1 0-2.35 2.35-5.02 5.22m88.96-2.16c-2.18 3.52-5.09 8.23-5.52 8.95-.26.44-.96 1.53-1.55 2.44-1.21 1.84-1.38 2.45-.5 1.7.33-.26.6-.64.6-.84 0-.2.33-.84.73-1.43 2.3-3.34 7.65-12.3 7.34-12.3-.1 0-.6.66-1.1 1.48m-161.3 4.72c-2.2 3.26-3.08 4.72-2.42 4.04.96-.98 4.3-5.97 4.12-6.15-.09-.09-.85.86-1.7 2.1m132.82 5.36c-.89.9-2.93 2.87-4.54 4.36-1.6 1.5-4.7 4.42-6.89 6.5-3.59 3.43-12.5 11.77-13.12 12.28-.14.11-.96 1-1.82 1.97-1.55 1.73-.22.6 3.94-3.36l3.58-3.35c1.5-1.41 5.93-5.6 9.82-9.3 3.9-3.71 7.76-7.33 8.58-8.04 1.2-1.05 2.64-2.85 2.17-2.73-.07.02-.84.77-1.72 1.67m-136.6.17c-1.57 1.83-10.42 17.32-10.1 17.65.1.09.84-1.12 1.66-2.68a178.8 178.8 0 0 1 4.32-7.5 271 271 0 0 0 3.45-5.8c.35-.64.86-1.43 1.14-1.76.27-.33.4-.6.3-.6-.1 0-.44.31-.77.7m107.17 4.52-3.7 5.62c-4.15 6.28-10.2 15.07-10.9 15.86-.45.49-.71.98-.6 1.1.36.35 1.4-1.15 13.08-18.73 4.6-6.94 4.7-7.1 4.44-7.1-.1 0-1.14 1.47-2.32 3.25m47.8 1.77c-.93 1.47-2 3.12-2.38 3.66-.38.55-1.08 1.7-1.55 2.57-.48.86-1.3 2.27-1.81 3.14l-1.75 2.95a135.47 135.47 0 0 1-2.76 4.53 41.82 41.82 0 0 0-2.34 3.95c-.21.43-1.55 2.65-2.97 4.92a118.8 118.8 0 0 0-2.96 4.93c-.21.43-1.09 1.94-1.96 3.35a100.3 100.3 0 0 0-2.62 4.53c-.58 1.08-1.67 3-2.42 4.26-.76 1.26-1.3 2.37-1.2 2.46.09.1 1.3-1.8 2.7-4.22 1.39-2.42 2.95-5.13 3.47-6.01l1.97-3.45c.56-1.02 2.9-4.92 5.2-8.67 3.42-5.6 6.64-10.97 11.91-19.83.26-.43 1.14-1.82 1.96-3.1.82-1.28 1.42-2.4 1.34-2.48-.08-.09-.91 1.04-1.83 2.51m-110.4 11.07C92.6 193.5 79.6 203.33 73.6 206.9c-2.32 1.39-4.16 2.58-4.09 2.66.2.19 4.63-2.42 8.31-4.88a196.86 196.86 0 0 0 18.53-14.47c.64-.56 1-1.01.78-1-.21 0-.68.31-1.03.67m90.6 3.32c-1.19 2-2.42 4.18-2.75 4.83a98.7 98.7 0 0 1-2.47 4.26c-1.03 1.69-1.8 3.15-1.7 3.24.17.18 2.88-4.26 5-8.2a77.92 77.92 0 0 1 2.14-3.74c1.17-1.86 2.3-4.03 2.1-4.03-.1 0-1.13 1.64-2.32 3.64m-146.67 0a56.96 56.96 0 0 1-1.47 3.2c-.22.4-.3.82-.18.94s.5-.47.85-1.32c.35-.84.98-2.32 1.4-3.27.4-.96.68-1.8.6-1.88-.08-.08-.62.97-1.2 2.32m-10.01 4.46c-.26.97-.46 2.25-.44 2.85.03 1.24.1 1.09.77-1.98.6-2.7.34-3.38-.33-.87m7.07 2.74c-.24.87-.43 1.94-.41 2.37.02.43.28-.1.58-1.18a8.1 8.1 0 0 0 .41-2.37c-.07-.22-.33.32-.58 1.18M138.65 220c-11.58 11.54-22.81 22.94-24.97 25.34l-7.28 8.04a310.97 310.97 0 0 0-4.53 5.08c-.65.76-2.07 2.36-3.15 3.55a1567.05 1567.05 0 0 1-26.8 26.91c-3.47 3.29-5.5 5.55-3.15 3.5a781.38 781.38 0 0 0 19.85-19.47c2.3-2.36 5.52-5.63 7.14-7.28 1.63-1.65 4.27-4.5 5.88-6.35 3.23-3.7 3.23-3.7 10.68-11.83 8.03-8.76 23.2-24.12 38.85-39.35 7.41-7.22 9.23-9.13 8.7-9.13-.1 0-9.64 9.45-21.22 20.99m78.69-11.97c-12 11.92-18.52 18.57-18.2 18.57.24 0 27.46-27.21 27.46-27.46 0-.29-.6.3-9.26 8.89m-74.82-7.11c-.36.4-.65.84-.65.98 0 .23-.96 1.59-4.23 5.98-2.84 3.83-4.76 6.56-3.97 5.67.77-.86 2.66-3.3 5.63-7.25 1.55-2.05 2.97-4.15 2.97-4.4 0-.14.29-.59.65-.98.36-.4.56-.72.45-.72-.1 0-.49.32-.85.72m-58.84 2.55c-1.74 1.42-6.54 4.48-7.49 4.77-.92.29-2.05 1.41-1.41 1.41.22 0 .61-.26.89-.59.27-.32.69-.59.93-.6.83 0 9.23-5.86 8.46-5.89-.15 0-.77.4-1.38.9M29.3 207.3c0 2.5.07 3.51.14 2.27.08-1.25.08-3.29 0-4.53-.07-1.25-.14-.23-.14 2.26m6.76-1.58c-.93 5.91.48 10.01 3.73 10.8.81.19.78.13-.2-.32-2.63-1.23-3.95-4.9-3.23-9.03.18-1.04.26-2.29.19-2.76-.08-.47-.3.12-.49 1.31m246.2-.9c.38.1 1 .1 1.38 0 .38-.1.06-.19-.7-.19-.75 0-1.06.09-.68.18m-5.82.67c-.86.24-1.75.55-1.97.68-.21.13-1.24.46-2.27.74-1.04.28-2 .7-2.14.92-.16.26.02.3.5.1a38.3 38.3 0 0 1 1.94-.7 19 19 0 0 0 1.97-.74c.44-.2 2.21-.61 3.94-.92 2.51-.44 2.8-.55 1.38-.54-.97.01-2.48.22-3.35.46m9.77.1c6.61 2.02 3.74 10.26-6.87 19.7-4 3.56-21.17 14.32-29.51 18.5-2.42 1.21-4.31 2.28-4.21 2.38.37.38 12.1-6.04 18.9-10.34.8-.52 1.55-.93 1.66-.93.18 0 4.97-3.2 10.66-7.1 12.34-8.5 17.72-23.11 8.39-22.83-.55.02-.16.26.98.61m-107.2 1.04c-.2.27-.5.76-.65 1.09-.15.32-.49.94-.75 1.37-.27.44-1.16 1.94-1.98 3.35a345.64 345.64 0 0 0-4.66 8.08 321.23 321.23 0 0 1-4.5 7.88c-.51.87-1.39 2.38-1.94 3.35-.55.98-1.18 2.04-1.4 2.37a11.2 11.2 0 0 0-.78 1.57c-.23.55-.92 1.79-1.55 2.76-.62.98-2.59 4.35-4.37 7.5-1.77 3.13-3.56 6.2-3.98 6.78-.41.6-.93 1.48-1.14 1.97-.22.5-.93 1.78-1.58 2.87a386.9 386.9 0 0 0-2.85 4.86l-2.61 4.54c-3.71 6.41-4.57 8.05-3.87 7.35.33-.33 1.12-1.57 1.76-2.76 1.52-2.83 3.94-7.06 7.05-12.32a83.59 83.59 0 0 0 2.5-4.4c0-.1.9-1.61 2-3.38 1.1-1.77 2.1-3.52 2.23-3.88.14-.36.8-1.54 1.48-2.62 1.26-2.01 4.3-7.3 5.28-9.2.3-.58 2-3.53 3.77-6.57 3.24-5.55 9.44-16.34 12.63-21.97.63-1.12.59-1.46-.08-.59m86.59 2.83c-2.08.85-5.21 2.58-4.68 2.59.14 0 1.3-.5 2.57-1.1 1.26-.61 2.92-1.4 3.68-1.75 2.03-.95.94-.77-1.57.26m-194.88 2c-1.52.96-3.7 2.2-4.84 2.8-1.15.57-2 1.13-1.9 1.24.2.19 10.09-5.35 10.09-5.65 0-.37-.73-.03-3.35 1.62m203.55-1.4c-.33.17-1.35.64-2.27 1.02-.93.38-1.62.76-1.53.84.14.14.79-.11 4.39-1.7.65-.3.91-.52.59-.51-.33 0-.86.16-1.18.34m3.05-.11c4.06 1.64-21.5 24.55-37.14 33.28-1.3.72-3.33 1.9-4.51 2.6-1.18.71-2.67 1.3-3.3 1.3h-1.15l1.5-1.88a163.14 163.14 0 0 1 18.3-18.76c2.27-1.93 4.42-3.8 4.77-4.14.88-.88 1.6-1.44 5.43-4.3 1.82-1.35 3.15-2.45 2.96-2.44-.2 0-1.16.62-2.13 1.37-.98.76-2.4 1.8-3.15 2.32-.76.52-1.96 1.49-2.66 2.15-.7.66-1.61 1.43-2.02 1.71-6.09 4.27-23.73 22.68-23.16 24.16.45 1.18 8.84-2.76 14.1-6.6.94-.7 2.96-2.1 4.47-3.13 6.74-4.55 19.75-15.43 23.26-19.43a55.4 55.4 0 0 1 2.47-2.65c2.23-2.13 3.61-5.86 2.16-5.8-.42.03-.5.12-.2.24M63.04 212.5c-8.43 3.55-14.15 4.9-19.3 4.54-1.73-.12-2.63-.07-2.17.13 3.61 1.5 23.55-3.23 25.25-5.99.12-.18.16-.32.09-.3l-3.87 1.62m-33.48.23c-.1 6.62 10.15 10.45 20.82 7.78 5.1-1.28 5.8-1.47 6.56-1.8.43-.19 1.48-.62 2.32-.95.85-.34 1.43-.73 1.3-.87-.14-.13-.48-.07-.76.14-1.67 1.27-10.4 3.49-15.17 3.85-7.82.59-12.4-1.66-14.33-7.05-.45-1.24-.73-1.66-.74-1.1m237.74.67a12.2 12.2 0 0 0-2.32 1.87c-.17.28.06.2.5-.19.42-.38.9-.69 1.05-.69.14 0 1-.53 1.9-1.18 2.26-1.64 1.36-1.49-1.13.19m-12.73 1.52c-1.07.5-5.75 3.2-7.43 4.29-.57.37-1.57.98-2.22 1.34-2.42 1.35-8.29 5.39-8.6 5.91-.17.3-.54.55-.81.55-1.53 0-18.3 17.16-17.52 17.93.09.09.6-.39 1.13-1.06 4.61-5.82 15.15-16.48 16.3-16.48.13 0 1.25-.77 2.5-1.7a65.6 65.6 0 0 1 4.83-3.25c1.4-.85 3.36-2.09 4.33-2.75.98-.67 2.3-1.5 2.96-1.84 4.64-2.41 7.82-4.48 4.53-2.94m-126.6 5.87c-9.28 12.27-10.26 13.54-11.7 15.08-2.64 2.84-5.1 6.5-4.36 6.5.65 0 24.83-23.7 24.83-24.34 0-.15-4.16 3.89-9.24 8.98-10.79 10.8-11.03 11.03-11.6 11.03-.55 0-.58-.66-.04-.99.21-.13 2.21-2.63 4.43-5.55l5.8-7.62c5.8-7.56 6.73-8.8 6.58-8.95-.08-.1-2.2 2.55-4.7 5.86m63.27 13.8a837.84 837.84 0 0 0-20.8 21.75c-2.96 3.27-7.1 7.7-11.04 11.84-.73.76-3.43 3.8-8.28 9.28l-4.47 5.06a372.16 372.16 0 0 0-9.24 11.02 275.2 275.2 0 0 0-3.74 4.79 50.72 50.72 0 0 1-3.78 4.43c-.84.82-1.37 1.49-1.18 1.49.47 0 2.12-1.57 3.1-2.94a88.6 88.6 0 0 1 1.97-2.58l2.17-2.77c.54-.7 2.15-2.63 3.56-4.28 1.42-1.65 3.19-3.8 3.93-4.77.75-.98 2.87-3.47 4.72-5.54l4.9-5.52c2.52-2.88 9.03-10 9.52-10.42.26-.22 2.22-2.35 4.36-4.73 6.4-7.13 13.5-14.6 23.6-24.87 5.5-5.6 8.56-8.82 8.35-8.82-.12 0-3.56 3.4-7.65 7.58m24.2 14.19c-10.94 17-8.62 37.15 3.86 33.48.94-.28.62-.35-1.6-.33-7.23.05-9.47-3.6-8.57-14 .6-7.02 2.7-12.96 6.72-19.07 1.99-3.03 2.16-3.33 1.9-3.33-.12 0-1.16 1.46-2.31 3.25m28.1-1.88c-.55.31-2.05 1.03-3.35 1.6-4.66 2.01-6.89 3.08-6.74 3.22.07.08 1.1-.29 2.26-.82 1.16-.53 3.44-1.53 5.05-2.22 2.88-1.23 4.9-2.38 4.14-2.35-.2 0-.82.26-1.36.57m30.74 2.93a328.32 328.32 0 0 1-5.66 3.74c-1.26.8-2.21 1.56-2.1 1.67.1.1 1-.4 1.98-1.11.98-.72 2.64-1.83 3.68-2.47 1.04-.63 2.8-1.74 3.91-2.46 2.33-1.52 2.74-1.58 3.3-.55 1.37 2.57.73 3.32-7.08 8.3l-7.1 4.55c-3 1.96-14.63 8.58-18.8 10.7-2.43 1.25-4.35 2.33-4.26 2.42.23.23 8.78-4.19 12.62-6.52.43-.26 1.23-.7 1.77-.99.54-.28 1.43-.79 1.97-1.13.54-.35 3.03-1.84 5.52-3.32 12.74-7.57 16.16-10.23 16.16-12.6 0-3.26-1.37-3.31-5.91-.23m-42.95 2.38c-.32.2-1.74.74-3.15 1.2a14.31 14.31 0 0 0-3.4 1.52c-.79.64-5.68 8.38-5.68 8.98 0 .15-.3.6-.65 1-.36.4-.54.83-.4.97.13.13.56-.32.94-1 .39-.7 1.5-2.6 2.48-4.24.97-1.65 1.99-3.38 2.25-3.86.78-1.4 1.75-2.08 4.25-2.92 3.15-1.06 5.26-2 4.53-2a2.5 2.5 0 0 0-1.17.35m32.1 4.46c-4.73 2.98-12.01 7.8-12.01 7.96 0 .15 2.87-1.53 5.7-3.34l4.02-2.53c3.48-2.2 5.13-3.4 4.62-3.35-.2.01-1.24.58-2.32 1.26M73.5 268.07c-4.6 5.41-5.88 7.12-4.96 6.63.45-.24.82-.6.82-.77 0-.19 1.29-1.82 2.86-3.64 2.53-2.9 4.46-5.46 4.14-5.46-.06 0-1.35 1.46-2.86 3.24m175.86-2.52c-1.33.88-14.05 6.76-14.62 6.76-.11 0-1.33.55-2.7 1.21-1.36.67-2.13 1.13-1.7 1.02.85-.2 7.9-3.05 9.86-3.97 6.64-3.15 11.44-5.74 10.64-5.74-.22 0-.88.32-1.48.72m-32.15 2.25c-.66 1.45-.54 1.76.18.44.33-.61.53-1.2.44-1.28-.1-.1-.37.29-.62.84m-1.22 3.76c-.28 1.09-.43 2.06-.34 2.15.09.1.4-.73.67-1.82.28-1.1.44-2.06.35-2.15-.1-.1-.4.72-.68 1.82m11.22 3.72c-.42.32-.58.58-.37.58.22 0 .56-.16.77-.35.2-.2.72-.44 1.16-.55l.79-.19-.8-.03a2.87 2.87 0 0 0-1.54.54m12.39 0c-1.24.73-2.05 1.04-8.87 3.38-3.04 1.05-5.28 1.9-4.99 1.91.29.01 2.95-.8 5.91-1.8 5.41-1.82 10.63-4.05 9.52-4.06-.32 0-1.03.25-1.57.57m-102.1 3.44-2.62 4.42a62.4 62.4 0 0 1-3 5.4c-7.72 12.83-8.69 15.82-5.15 15.95l1.54.06-1.58-.26c-2.41-.39-1.97-2.64 1.77-8.92a628.77 628.77 0 0 1 9.56-16.68c1.06-1.81 1.87-3.36 1.78-3.44-.08-.08-1.11 1.48-2.3 3.47m78.11-3.04c-.1 1.56 1.02 2.55 2.83 2.48 1.6-.06 1.6-.06.27-.22-1.59-.2-2.64-1-2.88-2.22-.16-.8-.17-.8-.22-.04M65.79 277.4c-.96 1.06-2.82 3.3-4.12 4.96-1.3 1.67-3.4 4.3-4.68 5.85a63.78 63.78 0 0 0-2.95 3.81 49.4 49.4 0 0 1-2.31 3.07c-5.11 6.34-3.38 8.67 4.63 6.23 3.5-1.06 9.25-5.02 10.3-7.1.27-.51 0-.36-.7.4a22.95 22.95 0 0 1-12.38 6.86c-6.58 1.11-5.9-1.17 3.97-13.2 1.42-1.74 3.77-4.66 5.22-6.5 1.45-1.85 3.19-4.02 3.86-4.83 1.76-2.12 1.22-1.83-.84.45m157.85-.93c-1.51.7-.43.68 1.39-.02.86-.33 1.08-.53.59-.53a6.1 6.1 0 0 0-1.97.55m-2.96.97c-.53.34-.53.38 0 .38.32 0 .86-.17 1.18-.38.53-.34.53-.38 0-.38-.32 0-.86.17-1.18.38m1.58 3.76c-1.17.34-1.44.51-.8.51.55 0 1.61-.24 2.37-.53 1.73-.66.78-.65-1.57.02"
      fill="#6d8280"
    />
    <path
      d="M384.48 68.75c.22.56-2.49 1.23-3.8.94-.32-.08-.54.09-.48.36.05.27-.27.5-.71.5-.45 0-2.47.78-4.5 1.75a44.96 44.96 0 0 1-4.7 2.01c-.57.14-1.03.4-1.03.58 0 .17-.53.44-1.18.58-.65.14-1.18.4-1.18.6 0 .18-.4.46-.89.6-.49.16-.98.4-1.08.53-.61.74-3.54 1.94-4.28 1.75-.57-.15-.85-.04-.85.33 0 .72-1.65 2.05-3.94 3.18a7.4 7.4 0 0 0-1.5.98c-.29.28-.78.5-1.09.5-.3 0-.56.15-.56.33 0 .18-.45.54-1 .79a8.3 8.3 0 0 0-1.48.85c-.26.22-1.72 1.23-3.24 2.24a86.41 86.41 0 0 0-3.8 2.65c-.58.46-2.53 1.86-4.34 3.12-5.5 3.83-8.75 6.15-9.79 6.98-2.3 1.84-6.4 5-7.9 6.1a261.4 261.4 0 0 0-15.96 12.8 972.58 972.58 0 0 1-9.02 7.69 84.98 84.98 0 0 0-3.72 3.29c-.99.94-2.69 2.44-3.77 3.34l-2.93 2.43a35 35 0 0 0-1.78 1.62c-.45.45-2.07 1.94-3.59 3.3-3.92 3.54-10.12 9.2-13.6 12.42a648.39 648.39 0 0 1-4.94 4.53c-10.44 9.42-25.11 23.53-48.75 46.9-21.6 21.35-23.22 22.96-25.66 25.62-1.3 1.4-3.78 4.07-5.54 5.91-1.75 1.84-5.3 5.66-7.9 8.47-2.6 2.82-4.91 5.3-5.15 5.52-.24.21-1.57 1.72-2.95 3.35-5.11 6-6.3 7-6.3 5.3 0-.5 3.8-7.45 4.73-8.65.16-.22 1.36-2.35 2.66-4.73 4.37-8.02 4.96-9.05 7.66-13.55a96.03 96.03 0 0 0 2.69-4.64c0-.08.48-.9 1.06-1.82 1.12-1.76 2.37-3.96 4.67-8.17.77-1.4 2.1-3.71 2.97-5.12a60.3 60.3 0 0 0 1.96-3.35c.2-.44 1.54-2.65 2.96-4.93 1.42-2.27 2.76-4.5 2.97-4.92.41-.84.77-1.44 2.34-3.95 1.18-1.87 1.68-2.7 2.75-4.53l1.76-2.95c.52-.87 1.33-2.28 1.8-3.14a36.7 36.7 0 0 1 1.56-2.56c1.57-2.29 4.33-6.7 4.33-6.93 0-.13.5-.98 1.09-1.89.6-.9 1.3-2 1.56-2.44l3.27-5.3a876.5 876.5 0 0 0 3.27-5.32c.26-.43.96-1.53 1.55-2.44a9.67 9.67 0 0 0 1.09-1.94c0-.16.4-.83.9-1.5s1.42-2.1 2.04-3.2c.62-1.08 2.04-3.38 3.16-5.12 1.11-1.73 3.52-5.6 5.35-8.58l4.6-7.49c.69-1.13 2.1-3.02 3.14-4.2 3.4-3.88 4.37-6.63 2.73-7.7-1.87-1.23-1.95-1.16-26.26 22.67-4.88 4.79-12.6 12.32-17.14 16.74a3877.7 3877.7 0 0 0-15.4 15.05 9091.65 9091.65 0 0 1-37.55 36.57c-2.68 2.6-9.99 9.78-16.23 15.96-14.34 14.19-17.23 16.95-17.72 16.95-.74 0 1.72-3.67 4.36-6.5.81-.88 2.75-3.27 4.32-5.33 6.62-8.72 16.78-22.21 17.31-23 .32-.46 1.34-1.86 2.27-3.11a14.4 14.4 0 0 0 1.7-2.6c0-.18.35-.65.78-1.04.43-.4.79-.9.79-1.12 0-.22.33-.77.73-1.22 1-1.11 7.86-11.24 15.9-23.47a429.1 429.1 0 0 0 14.07-23c3.37-5.78 12.37-23.65 14.14-28.09 16.02-40.14 8.29-55.25-25.4-49.6-5.98 1-10.15 1.83-10.97 2.2-.43.2-2.31.79-4.18 1.32a91.9 91.9 0 0 0-7.88 2.82 501.97 501.97 0 0 1-5.67 2.3c-2.29.9-15.6 7.9-17.35 9.14-.65.46-1.57.96-2.06 1.1-.49.16-.89.46-.89.67 0 .21-.49.6-1.09.86-.6.26-1.53.79-2.07 1.18-.54.38-2.13 1.45-3.55 2.36a73.57 73.57 0 0 0-5.46 4.03 263.5 263.5 0 0 1-5.88 4.64c-5.61 4.28-19.5 17.95-26.1 25.7a426.3 426.3 0 0 1-6.53 7.49 99.02 99.02 0 0 0-7.25 9.07c-.54.78-1.29 1.8-1.66 2.28-3.46 4.4-10.14 14.5-12.29 18.53l-3.36 6.34c-9.98 18.8-12.08 37.7-4.72 42.42 5.23 3.36 15.64 2.74 25.58-1.52a114.8 114.8 0 0 0 14.97-7.96c.33-.22 1.04-.6 1.58-.87.84-.4 5.55-3.44 8.43-5.43 5.43-3.78 9.63-6.97 13.5-10.28 8.13-6.94 9.33-7.99 12.34-10.8l3.6-3.36c1.29-1.2 7.09-6.92 7.97-7.88l5.94-6.39c4.99-5.35 5.73-6.62 4.05-6.94-.72-.14-1.28.39-8.4 7.82-6.4 6.7-16.83 16.57-21.5 20.36a317.9 317.9 0 0 0-9.63 8.18 63.5 63.5 0 0 1-3.55 2.89l-5.26 4.04c-4.13 3.17-13.23 9.06-14 9.06a16 16 0 0 0-2.06 1.13c-11.76 7.15-27.85 8.74-30.92 3.05-1.2-2.24-.69-10.5.92-14.62 3.98-10.24 8.78-19 16.74-30.6 5.52-8.05 6.28-9.11 9.5-13.2a624.83 624.83 0 0 1 15.77-18.97c4.92-5.76 20.57-21.15 24.54-24.12a66.82 66.82 0 0 0 3.55-2.77c.17-.23 5.16-4.23 8.44-6.77.63-.5 2.85-2.08 4.92-3.54 5.1-3.56 6.08-4.26 8.03-5.72 1.95-1.46 13.87-8.2 16.44-9.29.97-.42 2.71-1.19 3.87-1.72 17.35-7.95 34.16-9.33 38.8-3.17 3.06 4.04 2.64 17.26-.79 25.08-.24.54-.99 2.5-1.67 4.34a142.97 142.97 0 0 1-4.43 11.03 190.76 190.76 0 0 1-8.15 15.37l-2.67 4.62c-1.73 3.22-2.32 4.18-6.52 10.75a1644.16 1644.16 0 0 0-7.99 12.61c-1.48 2.33-6.1 9.16-7.5 11.1a248.6 248.6 0 0 0-3.05 4.34 892.43 892.43 0 0 0-6.78 9.78 93.61 93.61 0 0 1-3.72 5.07c-.78.95-1.9 2.37-2.48 3.16-.58.78-1.43 1.87-1.88 2.41-.45.55-1.66 2.08-2.68 3.42a501.69 501.69 0 0 1-10.17 12.94c-9.34 11.3-12.68 15.39-13.18 16.1-.32.48-1.06 1.4-1.63 2.04-.94 1.06-5.07 6.04-7.02 8.46-.44.54-1.64 2-2.67 3.23a725.38 725.38 0 0 0-6.53 7.93l-4.94 5.98a320.77 320.77 0 0 1-5.12 6.11c-.5.54-2.23 2.58-3.86 4.53l-4.28 5.13c-3.66 4.37-4.66 5.6-8.68 10.64-12.48 15.67-13.04 17.13-6.12 15.96 6.82-1.15 8.03-2.14 32.11-26.24 10.45-10.45 13.4-13.51 16.18-16.78.65-.77 2.7-3.05 4.53-5.08l7.29-8.04c4.55-5.04 37.29-37.8 46.47-46.52 3.43-3.25 7.06-6.71 8.07-7.69 1-.97 2.8-2.63 4-3.7 1.18-1.05 4.11-3.8 6.5-6.1 2.4-2.3 6.55-6.23 9.23-8.72 2.67-2.5 5.85-5.48 7.07-6.65a268 268 0 0 1 5.17-4.77 343.5 343.5 0 0 0 5.12-4.68c3.37-3.15 4.62-2.27 2.17 1.52a133.48 133.48 0 0 0-4.93 8.55c0 .11-1.04 1.91-2.3 4-1.28 2.1-2.7 4.51-3.17 5.38-.47.87-1.2 2.1-1.62 2.76-.42.65-1.1 1.82-1.5 2.6-.4.77-1.76 3.16-3.02 5.31-5.8 9.92-6.52 11.16-6.52 11.35 0 .18-4.35 7.7-5.85 10.1-.34.54-.9 1.52-1.25 2.17-.81 1.53-6.76 11.9-10.85 18.91a315.73 315.73 0 0 0-3.77 6.57c-.98 1.9-4.02 7.19-5.28 9.2a23.39 23.39 0 0 0-1.48 2.62c-.13.36-1.13 2.1-2.23 3.88-1.1 1.77-2 3.28-2 3.36 0 .15-5.68 9.98-8.12 14.04a18.12 18.12 0 0 0-1.33 2.47c0 .13-.48 1-1.07 1.91a53.8 53.8 0 0 0-1.7 2.85c-.36.65-2.4 4.2-4.52 7.88-10.8 18.65-11.34 19.98-8.4 20.22 1.89.16 3.08-.72 5.86-4.31a428.16 428.16 0 0 1 18.7-22.4 624.3 624.3 0 0 1 8.27-9.28 688.8 688.8 0 0 0 11.03-11.84c5.74-6.33 33.04-34.55 43.03-44.47a3472.3 3472.3 0 0 1 38.16-37.27 140.4 140.4 0 0 0 3.77-3.52 740 740 0 0 1 17.11-15.84c.87-.73 3.18-2.75 5.14-4.49a346.2 346.2 0 0 1 5.67-4.93 80.2 80.2 0 0 0 2.94-2.56c1.09-1.05 7.26-6.12 13.67-11.23a386.7 386.7 0 0 0 5.63-4.55c.25-.22 1.16-.92 2.03-1.56a90.8 90.8 0 0 0 3.74-2.98c3.2-2.68 9.17-7.28 11.36-8.74 1.06-.7 3.5-2.36 5.43-3.67 1.93-1.32 5.1-3.33 7.05-4.46l4.14-2.44c.32-.2 1.66-.88 2.96-1.51 7.33-3.55 11.2-4.33 11.82-2.4.73 2.29 1.67 2.03 7.07-1.96 2.07-1.53 3.98-2.78 4.25-2.8.28 0 .94-.53 1.47-1.17.53-.64 1.29-1.17 1.69-1.17.4 0 .82-.27.94-.59.13-.33.4-.6.6-.6.2 0 .94-.52 1.64-1.17.69-.65 1.48-1.18 1.76-1.18s.6-.27.73-.6c.13-.32.48-.59.78-.59.3 0 .55-.15.55-.34 0-.2.53-.57 1.18-.84.65-.27 1.18-.67 1.18-.88 0-.22.44-.28 1.02-.13.72.18.93.12.74-.2-.3-.48 1.63-2.3 2.48-2.32.27-.01.49-.16.49-.33 0-.44 3.82-3.23 4.43-3.23.29 0 1-.5 1.57-1.09 1.75-1.79 2.64-2.46 3.28-2.46.83 0 3.71-3.17 3.72-4.1 0-1.14-1.49-3.28-2.47-3.52-2.05-.51-8.93-.26-8.7.31m9.27.9c1.5 1.5-.2 6.02-2.25 6.02-.23 0-6.3 4.12-6.82 4.63-.3.28-1.6 1.24-2.9 2.12a30.8 30.8 0 0 0-3.12 2.36c-.4.4-.93.74-1.17.74-.52 0-6.03 3.87-7.5 5.27a9.64 9.64 0 0 1-2.44 1.57c-.76.32-1.59.95-1.83 1.4-.24.45-.66.82-.94.82-.48 0-1.08.4-3.4 2.27-.61.48-1.22.88-1.34.88-.13 0-1.05.63-2.05 1.38-2.19 1.67-2.36 1.69-3.1.25-.77-1.49-1.39-1.68-3.87-1.22-3.32.62-11.47 4.06-12.47 5.27-.3.34-.69.63-.88.63-.66 0-10.38 6.03-13.43 8.34a29.26 29.26 0 0 1-3.3 2.3c-.14 0-.8.45-1.49 1.01-.68.56-2.47 2-4 3.2-1.5 1.19-3.53 2.82-4.49 3.61a883.93 883.93 0 0 0-17.77 14.12c-.32.29-1.97 1.67-3.66 3.08-1.69 1.4-3.64 3.1-4.34 3.76-.69.66-2.22 1.94-3.4 2.86a58.4 58.4 0 0 0-3.55 3c-.77.73-2.82 2.57-4.56 4.09a615.67 615.67 0 0 0-15.53 14.31 301.86 301.86 0 0 1-5.94 5.5c-5.66 5.01-42.55 41.37-53.76 52.99a3707.9 3707.9 0 0 1-14.19 14.6 550.35 550.35 0 0 0-10.48 10.95 290.9 290.9 0 0 1-4.13 4.51 431.72 431.72 0 0 1-10.1 10.92 149.44 149.44 0 0 0-6.42 7.04 46.3 46.3 0 0 1-2.88 3.35 246.27 246.27 0 0 0-10.43 12.03 203.43 203.43 0 0 0-6.73 8.47c-5.61 7.36-9.62 8.29-6.08 1.4 2.52-4.88 4.68-8.85 5.16-9.43.26-.33.69-1.04.95-1.58s1-1.87 1.65-2.95a46.4 46.4 0 0 0 1.44-2.53c.38-.78 4.82-8.4 6.7-11.46a56.06 56.06 0 0 0 2.47-4.34c.2-.32.47-.86.59-1.18.12-.32.4-.86.6-1.18 1-1.55 3.96-6.7 4.76-8.28.49-.97 1.3-2.3 1.78-2.95.49-.65 1.5-2.36 2.26-3.8a79.88 79.88 0 0 1 2.8-4.83 17.58 17.58 0 0 0 1.43-2.47c0-.14.85-1.69 1.9-3.44a92.83 92.83 0 0 0 2.18-3.79c.15-.32.88-1.57 1.63-2.76.75-1.19 1.58-2.6 1.84-3.15.5-1.01 3.62-6.43 4.3-7.49.21-.32.74-1.3 1.18-2.17a38.7 38.7 0 0 1 1.55-2.75c.84-1.33 2.8-4.72 4.13-7.11 1.7-3.07 1.98-3.54 2.61-4.32a45.7 45.7 0 0 0 2.52-4.34 261.8 261.8 0 0 1 3.61-6.56c.96-1.66 2.13-3.71 2.6-4.56a549.6 549.6 0 0 1 5.16-8.9 221.4 221.4 0 0 0 3.1-5.4 21.27 21.27 0 0 1 1.73-2.79c.3-.34.55-.74.55-.89 0-.25 6.57-11.88 7.49-13.26.21-.33.57-1 .78-1.51.22-.5.66-1.18.99-1.5.73-.74.75-1.36.06-2.3-.65-.89-1.19-.58-4.58 2.66-1.2 1.14-3.42 3.16-4.94 4.5a234.17 234.17 0 0 0-6.3 5.8 725.4 725.4 0 0 1-7.26 6.84c-3.3 3.05-9.92 9.33-14.95 14.18a12.4 12.4 0 0 1-1.96 1.67c-.12 0-1.56 1.34-3.2 2.97l-4.46 4.44c-.8.8-1.47 1.6-1.47 1.75 0 .17-.19.3-.4.3-.5 0-2.97 2.28-10.02 9.26a496.86 496.86 0 0 1-7.53 7.34c-2.73 2.54-27.9 28.31-30.93 31.68a902.88 902.88 0 0 1-4.11 4.53 1737.6 1737.6 0 0 0-8.89 9.79c-5.44 6.04-32.1 32.48-35.52 35.22-5.66 4.54-16.98 6.75-12.7 2.49.35-.36 1.58-2.06 2.73-3.8a67.24 67.24 0 0 1 4.03-5.4c2.45-2.84 6.77-8.24 7.64-9.53.36-.55 1.25-1.65 1.97-2.45.72-.8 1.96-2.23 2.75-3.15l4.04-4.72c1.43-1.66 2.6-3.2 2.6-3.43 0-.22.26-.55.59-.73.32-.18 2.18-2.27 4.12-4.65 1.95-2.38 3.8-4.59 4.1-4.91.3-.33 2.08-2.46 3.94-4.73a672.76 672.76 0 0 1 10.1-12.2 50.5 50.5 0 0 0 1.98-2.39c.54-.7 1.96-2.46 3.15-3.9 1.2-1.42 3.94-4.81 6.11-7.52a126.8 126.8 0 0 1 4.58-5.51c.35-.33 1.68-1.93 2.95-3.56 1.27-1.62 2.4-3.04 2.52-3.15.1-.1.82-1.05 1.58-2.1.75-1.05 1.7-2.2 2.1-2.56.4-.36 1.24-1.4 1.87-2.3.63-.9 1.37-1.88 1.65-2.17.28-.29 1.12-1.4 1.88-2.46a41.72 41.72 0 0 1 2.44-3.14c.6-.67 1.09-1.44 1.09-1.72 0-.29.27-.62.6-.75.71-.27 3.17-3.47 6.16-8.02a70.57 70.57 0 0 1 3.63-5.06c.79-.94 1.43-1.96 1.43-2.27 0-.3.17-.55.37-.55.2 0 .6-.43.89-.96.87-1.63 6.59-10 7-10.26.22-.14 1.03-1.34 1.8-2.69.78-1.35 2.47-4.04 3.76-6a56.43 56.43 0 0 0 2.72-4.41 7 7 0 0 1 1-1.58c.36-.38 1.54-2.12 2.64-3.85 1.1-1.74 2.34-3.66 2.77-4.27.42-.62 1.46-2.46 2.31-4.09a50.62 50.62 0 0 1 2.28-4c1.6-2.3 9.29-16.92 10.5-19.98.59-1.5 1.3-3.27 1.58-3.92 1.1-2.55 3.34-8.49 3.34-8.87 0-.22.15-.71.34-1.09.38-.75 1-3.12 1.92-7.38.33-1.52.67-5.15.76-8.07l.17-5.3-1.47-2.92c-1.12-2.2-1.8-3.06-2.78-3.53-.72-.34-1.3-.75-1.3-.9 0-.16-.92-.42-2.04-.57-1.62-.22-1.9-.36-1.35-.67.8-.45 2.88-.13 4.45.69.6.32 1.38.58 1.73.58.94 0 4.78 4.22 6.1 6.7l1.15 2.17-.02 7.68c-.03 8.23-.17 9.19-2.6 17.14a148.6 148.6 0 0 1-3.5 10.45l-1.35 3.54c-.28.76-1.95 4.2-3.71 7.65s-3.2 6.5-3.2 6.75c0 .27-.27.7-.6.97a2 2 0 0 0-.59 1.35c0 .47-.17 1.03-.38 1.25-.22.21-.89 1.35-1.5 2.54a205.14 205.14 0 0 1-6.13 10.69 676.44 676.44 0 0 0-4.38 7.49 82.67 82.67 0 0 1-3.25 5.3c-.5.66-.9 1.31-.9 1.43a21 21 0 0 1-1.6 2.52c-.88 1.27-2.24 3.29-3.01 4.48a618.35 618.35 0 0 1-8.35 12.41c-.77 1.09-2.67 3.92-4.24 6.3a177.93 177.93 0 0 1-4.16 6.1c-.72.96-2.11 2.9-3.1 4.33-.97 1.42-2.53 3.56-3.45 4.75l-2.27 2.95c-.32.44-1.43 1.89-2.45 3.22a253.9 253.9 0 0 0-4.03 5.46 141 141 0 0 1-2.84 3.88c-.38.46-1.85 2.35-3.28 4.2a184.8 184.8 0 0 1-8 9.8c-2.48 2.7-4.84 5.96-4.6 6.35.75 1.2 1.71.33 21.14-19.01 5.6-5.59 10.37-10.15 10.58-10.15.21 0 .7-.49 1.08-1.09.38-.6 1.3-1.61 2.02-2.26.73-.65 3.06-2.87 5.17-4.93a249.6 249.6 0 0 1 6.25-5.9c1.33-1.2 2.42-2.38 2.42-2.62 0-.25.41-.71.9-1.04.5-.32 2.95-2.6 5.46-5.07a6791.65 6791.65 0 0 1 35.22-34.42c1.3-1.21 8.71-8.45 16.49-16.09 17.68-17.35 19.75-19.34 21.94-21.1.98-.77 2.27-1.92 2.86-2.54 1.4-1.44 2.8-1.35 2.98.2.14 1.23-1.5 4.27-2.87 5.32-1.06.82-3.74 4.92-11.24 17.22-.98 1.6-2.45 3.95-3.28 5.22a156.8 156.8 0 0 0-2.75 4.41 250.8 250.8 0 0 1-2.53 4.14 46.02 46.02 0 0 0-1.75 3.01 11.1 11.1 0 0 1-1.13 1.78c-.58.7-3.21 4.94-4.73 7.6-.33.59-1.26 2.09-2.07 3.34a18.86 18.86 0 0 0-1.47 2.5c0 .25-2.75 4.56-4.78 7.5a8.3 8.3 0 0 0-1.13 2c0 .2-.53 1.06-1.17 1.91-.64.85-1.18 1.83-1.18 2.18 0 .34-.37.95-.8 1.34-.44.4-.79.9-.79 1.11 0 .22-.26.7-.58 1.05-.32.35-.99 1.38-1.48 2.28-1.86 3.4-5.16 9.02-6.2 10.56-.6.89-1.2 2.08-1.34 2.66-.15.58-.44 1.06-.65 1.06-.2 0-.73.66-1.17 1.48a50.9 50.9 0 0 1-1.3 2.25 103.87 103.87 0 0 0-3.77 6.51 93.3 93.3 0 0 1-3.64 6.5c-2.5 4.03-7.66 12.92-8.11 14-.14.32-.47.86-.74 1.18-.27.32-1.25 2.01-2.18 3.74l-2.8 5.13c-.6 1.08-1.56 2.85-2.14 3.94a59.08 59.08 0 0 1-2.37 3.98c-1.58 2.39-1.82 4.5-.51 4.5.9 0 2.01-1.04 4.68-4.34.96-1.2 2.3-2.71 2.95-3.37.66-.65 2.53-2.68 4.16-4.49a346.7 346.7 0 0 1 4.14-4.55c4.47-4.74 11.79-12.56 13.34-14.25a796.1 796.1 0 0 1 12.76-12.8 3671.3 3671.3 0 0 1 42.99-42.21 75.56 75.56 0 0 1 5.03-4.64c.13 0 .53-.33.89-.74.74-.83 7.37-7.08 13.43-12.66l6.84-6.3a235.7 235.7 0 0 1 3.8-3.45c.56-.48 2.11-1.9 3.45-3.15a323.83 323.83 0 0 1 8.23-7.41c.5-.45 1.76-1.51 2.8-2.37a84.36 84.36 0 0 0 3.76-3.33 66.15 66.15 0 0 1 3.16-2.82c3.2-2.6 4.85-4 5.03-4.26.11-.16 1.53-1.4 3.16-2.74 3.05-2.53 5.95-5.01 7.87-6.73.6-.54 2.2-1.76 3.53-2.71 1.34-.95 3.98-2.99 5.86-4.53a85.4 85.4 0 0 1 5.2-3.98c.98-.64 2.36-1.67 3.08-2.28.72-.6 1.96-1.54 2.76-2.07.8-.52 2.16-1.48 3.03-2.13 1.75-1.31 5.3-3.85 6.66-4.76 3.04-2.05 5.29-3.62 6.14-4.31a3.7 3.7 0 0 1 1.46-.8c.26-.01.62-.26.8-.55.16-.29.77-.78 1.34-1.08l3.15-1.69a17.12 17.12 0 0 0 2.32-1.39c.35-.45 2.52-1.78 4.05-2.48a9.1 9.1 0 0 0 2.1-1.29c.33-.33.92-.6 1.31-.6s1.17-.36 1.73-.8a20 20 0 0 1 3.3-1.82c1.26-.56 3.35-1.5 4.65-2.1a46.68 46.68 0 0 1 7.88-2.95c1.3-.36 2.9-.88 3.55-1.16 1.97-.86 6.73-.58 7.75.44m-217.4 4.9c-.87.21-3.36.62-5.52.92-3.54.49-12.57 2.68-15.2 3.69A137.85 137.85 0 0 0 126.5 94.6a732.4 732.4 0 0 1-6.78 4.72c-1.89 1.3-5 3.62-6.9 5.16l-5.43 4.37c-1.08.86-2.42 1.95-2.96 2.41-.54.47-1.96 1.62-3.15 2.55-2.5 1.96-15 14.25-18.9 18.6-6.8 7.56-9.55 10.72-12.35 14.2-3.1 3.83-5.7 7.02-7.7 9.45-1.25 1.52-2.27 2.94-6.38 8.96a47.7 47.7 0 0 0-2.75 4.3c0 .14-.6.99-1.34 1.89-1.4 1.7-4.96 7.39-4.96 7.91 0 .16-.25.5-.55.74-.3.24-1.33 1.94-2.3 3.78a434.7 434.7 0 0 1-2.18 4.14c-1.42 2.63-2.85 5.77-2.85 6.26 0 .32-.25 1.08-.55 1.7-3.83 7.87-4.37 16.74-1.22 20.07 1.91 2.02 11.02 2.94 14.97 1.52a9.86 9.86 0 0 1 2.36-.58c.44 0 1.3-.27 1.92-.6a5.17 5.17 0 0 1 1.64-.58c.28 0 1.02-.26 1.63-.57.61-.3 2.53-1.14 4.27-1.84a29.2 29.2 0 0 0 4.7-2.4 7.7 7.7 0 0 1 1.9-1.1c.2 0 .62-.27.94-.6.33-.32 1.06-.59 1.62-.59s.95.07.86.16c-.59.57-4.46 3-4.78 3-.22 0-1.07.53-1.9 1.18a8.14 8.14 0 0 1-1.75 1.18c-.35 0-5.62 2.24-6.91 2.93-6.83 3.68-19.7 4.3-24.54 1.17-6.85-4.41-5.04-21.92 4.12-39.77 4.05-7.9 5.72-10.9 7.26-13.12a17.5 17.5 0 0 0 1.73-2.8c0-.17.45-.82 1-1.45s1.52-2.03 2.16-3.12a30.6 30.6 0 0 1 1.96-2.95c2.05-2.53 4.73-6.31 4.73-6.69 0-.22.16-.4.36-.4.2 0 .97-.86 1.72-1.9a85.67 85.67 0 0 1 4.37-5.27c1.66-1.86 3.01-3.58 3.01-3.82 0-.25.16-.45.35-.45.19 0 1.37-1.2 2.61-2.66a186.51 186.51 0 0 1 16.7-17.27c1.4-1.28 4.02-3.74 5.83-5.46a52.43 52.43 0 0 1 4.77-4.09c.8-.53 2.09-1.54 2.84-2.23.76-.7 2-1.69 2.76-2.2a14.2 14.2 0 0 0 1.78-1.36c.21-.23 1.63-1.23 3.15-2.22l3.9-2.55 2.05-1.34c6.04-3.92 16.9-9.64 24-12.62 2.17-.91 4.47-1.9 5.12-2.19 1.1-.5 6.2-2.06 11.23-3.44a78.2 78.2 0 0 1 19.12-2.54c4.04 0 4.79.08 3.54.37m-44.14 83.47c.2.32-7.22 8.73-10.8 12.25-.55.55-1.75 1.8-2.64 2.76-.89.96-3.28 3.28-5.32 5.15a362.51 362.51 0 0 0-5.67 5.33 130.17 130.17 0 0 1-5.9 5.19c-2.18 1.8-4.91 4.1-6.08 5.12a74.22 74.22 0 0 1-7.97 6.09c-.95.6-2.7 1.8-3.89 2.66-1.2.87-2.57 1.75-3.05 1.96-.5.2-.89.54-.89.73 0 .5-1.53.85-1.8.42-.12-.2.1-.49.5-.64.39-.14.94-.5 1.22-.78.29-.27 1.62-1.34 2.96-2.36a20.2 20.2 0 0 0 2.76-2.37c.17-.28.5-.52.71-.52.48 0 4.01-2.81 9.35-7.44 2.1-1.82 4.96-4.23 6.37-5.36a99.3 99.3 0 0 0 3.98-3.4c.78-.73 2.73-2.52 4.33-3.96 2.5-2.25 11.31-11.07 18.92-18.94 2.3-2.38 2.52-2.52 2.91-1.89m146.21 47.53c-1.73.3-3.46.72-3.83.95-.38.22-.87.4-1.09.4-1.56 0-19.15 8.16-22.07 10.25-.61.43-1.25.78-1.41.78-.17 0-1.47.77-2.9 1.71a238 238 0 0 1-4.75 3.04c-1.2.72-3.2 2.08-4.44 3.01a19.2 19.2 0 0 1-2.5 1.7c-.32 0-6.72 5.76-8.97 8.08-10.87 11.19-16.38 21.5-17.32 32.45-1.27 14.65 3.43 16.92 22 10.64 6.31-2.13 7.71-2.72 14.77-6.19a295.62 295.62 0 0 0 19.31-10.88c.76-.5 3.95-2.54 7.1-4.54 6.86-4.38 7.48-4.91 7.48-6.4 0-2.63-.97-3.17-3.13-1.73-.77.51-2.37 1.54-3.57 2.29-1.19.74-2.95 1.88-3.9 2.51-.96.64-2.33 1.51-3.06 1.95-1.16.7-6.5 4.09-9 5.71a153.47 153.47 0 0 1-16.94 9.28 117.78 117.78 0 0 1-10.64 4.21 9 9 0 0 0-1.97.71c-2.52 1.85-10.5 3.16-11.41 1.87-1.26-1.8.47-10.6 2.47-12.61.26-.26.46-.61.46-.8 0-.62 4.85-8.34 5.66-9 .45-.36 1.7-.96 2.8-1.33 3.68-1.24 4.75-1.68 12.63-5.15 11.55-5.09 33.25-17.94 39.15-23.2 14.29-12.7 13.84-22.29-.93-19.71m7.41.53c3.36.78 4.03 4.07 1.76 8.61-2.64 5.27-7.59 9.92-17.48 16.41-3.23 2.13-6.35 4.2-6.94 4.61a5.3 5.3 0 0 1-1.31.74c-.13 0-2.5 1.3-5.24 2.88-8.4 4.84-20.2 10.5-27.06 12.95-5.61 2.01-5.53 1.95-8.13 6.29-7.42 12.36-8.47 20.56-2.56 19.94 3-.32 11.41-2.9 13.72-4.21.36-.21 1.78-.75 3.15-1.2 5.32-1.77 17.83-8.55 26.86-14.54 1.5-1 3-1.99 3.36-2.2 1.1-.68 7.24-4.62 9.62-6.19 2.9-1.91 3.44-1.92 3.44-.05 0 1.4-.89 2.88-1.72 2.88-.22 0-.77.35-1.22.76-.44.42-1.55 1.17-2.46 1.68-.9.5-3.18 1.89-5.04 3.08a228.2 228.2 0 0 1-4.06 2.57c-.37.22-1.74 1.1-3.04 1.95-2.37 1.56-2.91 1.87-7.69 4.45l-5.12 2.77c-1.4.76-2.83 1.5-3.15 1.66a83.5 83.5 0 0 0-3.75 1.86 68.4 68.4 0 0 1-7.36 3.05c-.94.3-3.29 1.1-5.23 1.77-10.93 3.83-16.75 3.53-18.79-.97-.84-1.84-1.05-11.2-.3-13.6.23-.75.57-2 .75-2.75 1.49-6.28 7.3-15.96 13.85-23.05.8-.87 1.78-1.96 2.18-2.42.4-.46 1.53-1.5 2.5-2.3.97-.8 2.74-2.39 3.93-3.51a42.47 42.47 0 0 1 4.48-3.61c4.4-2.96 8.73-5.68 9.7-6.11a7.5 7.5 0 0 0 1.78-1.17 8 8 0 0 1 1.77-1.17 42.4 42.4 0 0 0 2.96-1.56c1.9-1.1 9.81-5.06 12.22-6.13 8.31-3.68 15.31-5.17 19.62-4.17m-208.2.42c0 .22-.24.4-.54.4-.3 0-.66.26-.78.59-.12.32-.69.59-1.25.59-.58 0-.91-.17-.77-.4.13-.21.58-.39 1-.39.42 0 .77-.16.77-.36 0-.2.3-.45.69-.55.38-.1.73-.2.79-.23.05-.02.1.14.1.35m197.27 2.8c-2.25.53-8.61 3.74-9.7 4.89-.5.54-1.11.98-1.36.98-.45 0-1.29.58-3.5 2.4a17.2 17.2 0 0 1-1.88 1.38c-3.92 2.17-19.93 17.45-26 24.82-5.53 6.71-1.91 6.43 10.37-.81 2.49-1.47 10.2-6.95 13.62-9.69a39.08 39.08 0 0 1 2.92-2.16c.36-.2 1.87-1.45 3.35-2.77s4.16-3.68 5.96-5.26c10.37-9.08 13.24-15.42 6.22-13.77m3.32 1.16c0 .99-1.62 3.83-2.85 5-.5.48-1.6 1.67-2.47 2.66-3.5 4-16.52 14.88-23.26 19.44a187.28 187.28 0 0 0-4.47 3.12c-5.25 3.84-13.65 7.78-14.1 6.6-.43-1.13 12.53-15.26 18.98-20.69l2.75-2.3c.87-.71 2.44-2.04 3.5-2.95a49.1 49.1 0 0 1 2.82-2.24c.5-.32 1.48-1.06 2.21-1.63.73-.58 1.87-1.38 2.55-1.78.68-.4 2-1.27 2.96-1.95.94-.67 2.87-1.7 4.28-2.3 1.41-.6 2.83-1.23 3.16-1.41 1.3-.74 3.94-.45 3.94.43"
      fill="#566c64"
    />
    <path
      d="M387.78 67.6c0 .45.62.58 2.79.58 1.9 0 2.97-.18 3.36-.57.5-.5.14-.58-2.79-.58-2.67 0-3.36.12-3.36.58m-5.81 1.06c.25.75 1.48.85 1.48.13 0-.37-.34-.62-.82-.62-.48 0-.76.2-.66.49m12.51.1c0 .32.27.59.6.59a.6.6 0 0 0 0-1.18.6.6 0 0 0-.6.59m-19.7 2.36c0 .33.25.6.55.6.3 0 .65-.27.77-.6.16-.4-.02-.59-.55-.59-.42 0-.77.27-.77.6m21.36-.13c-.63.63-.6 1.43.07 2.1.47.47.54.32.52-1-.02-.87-.05-1.57-.08-1.57-.02 0-.25.21-.51.47m-23.73 1.3c0 .33.27.6.6.6a.6.6 0 0 0 .59-.6.6.6 0 0 0-.6-.59.6.6 0 0 0-.59.6m-204.13.22c-1.85.17-4.42.5-5.72.75-1.3.25-3.34.59-4.53.75-1.98.26-3 .53-6.5 1.69-.65.22-2.07.63-3.16.9-1.9.5-7.03 2.33-13.99 4.98-1.84.7-3.91 1.7-4.6 2.2-.69.5-1.52.92-1.85.92-.33 0-.7.18-.85.4-.13.23-1.88 1.2-3.88 2.15s-4.57 2.36-5.72 3.14a12.6 12.6 0 0 1-2.43 1.4c-.19 0-.95.54-1.69 1.19a5.79 5.79 0 0 1-1.72 1.18c-.2 0-1.06.52-1.92 1.17a8.66 8.66 0 0 1-1.84 1.18c-.4.02-5.36 3.48-6.6 4.62a59.04 59.04 0 0 1-6 4.89c-3.78 2.72-24.04 22.53-25.7 25.13-.5.79-2.13 2.67-3.62 4.2-3.23 3.3-9.6 10.97-9.6 11.56 0 .23-.32.6-.71.8-.39.2-.96.88-1.27 1.5-.66 1.28-1.6 2.6-3.54 4.97-.76.93-1.73 2.34-2.16 3.15-.43.8-.92 1.46-1.09 1.46-.16 0-.3.34-.3.77 0 .42-.22.9-.5 1.08-.66.43-5.28 7.38-5.64 8.49a12.4 12.4 0 0 1-1.15 2.27c-.48.76-1 1.81-1.18 2.34a4.35 4.35 0 0 1-.84 1.51c-.3.3-.54.88-.54 1.3 0 .42-.14.76-.32.76s-.86 1.2-1.53 2.66l-2.38 5.22a23.27 23.27 0 0 0-1.46 4.14 6.37 6.37 0 0 1-.63 1.99c-1.07 1.29-2.4 9.67-2.48 15.55-.07 6.35.86 9.56 3.45 11.8 5.87 5.1 20.08 4.04 31.75-2.38l2.56-1.34c2.1-1.07 3.43-1.84 3.75-2.19.1-.11 1.37-.78 2.8-1.47a14.7 14.7 0 0 0 3.11-1.86c.27-.33.8-.6 1.18-.6a3.7 3.7 0 0 0 1.69-.78c.55-.44 1.1-.79 1.21-.79.12 0 .7-.45 1.28-1a41.3 41.3 0 0 1 3.67-2.72c5.86-3.92 9.02-6.23 11.22-8.2a35.65 35.65 0 0 1 3.6-2.87c.71-.44 2.15-1.61 3.2-2.6 2.14-2.02 2.38-2.25 9.37-8.6 7.12-6.47 20.94-21.12 21.58-22.88a1.72 1.72 0 0 0-1.6-2.36c-1.1 0-5.96 3.57-5.96 4.38 0 .35-2.4 3.04-5.12 5.72a509.7 509.7 0 0 1-17.1 16.12c-.24.23-.81.67-1.27.99-.8.56-5.9 5-7.33 6.38-.39.38-.8.7-.92.7s-.6.37-1.08.83a162.7 162.7 0 0 1-9.9 7.97 37 37 0 0 0-2.6 2 42.34 42.34 0 0 1-7.03 4.55c-.5.23-1.9 1.12-3.12 1.99-1.2.86-2.4 1.57-2.67 1.57s-.7.26-.96.58c-.26.31-1.48.96-2.7 1.43-1.23.47-3.12 1.2-4.2 1.6-11.1 4.27-18.74 4.68-22.22 1.2l-1.43-1.43.1-3.74c.06-2.06.38-4.63.7-5.7.32-1.08.58-2.42.58-2.98 0-.55.45-1.78.99-2.72.54-.95.98-1.89.98-2.09 0-.41 2.54-6.1 3.15-7.04.2-.32.76-1.38 1.23-2.36.46-.98 1.2-2.22 1.62-2.76a14 14 0 0 0 1.33-2.17c.53-1.1 1.97-3.57 2.89-4.92 4.62-6.86 6.2-9.22 6.53-9.78.21-.37.88-1.14 1.47-1.73.6-.59 1.09-1.3 1.09-1.6 0-.53.73-1.52 3.68-4.97.84-.97 1.71-2.18 1.94-2.68.23-.5.57-.92.77-.92.19 0 .53-.53.76-1.18.23-.65.55-1.18.71-1.18.16 0 1.16-1.11 2.22-2.47a78.23 78.23 0 0 1 3.5-4.17c.88-.94 1.72-2.04 1.87-2.46.16-.42.46-.75.67-.75.22 0 2.1-2 4.19-4.44 5.16-6.02 5.4-6.28 6.5-7.23.86-.74 4.42-4.28 6.22-6.19 4.66-4.97 8.13-8.03 18.2-16.1a53.44 53.44 0 0 0 3.35-2.83c.22-.26.84-.69 1.38-.96.54-.27 2.4-1.56 4.14-2.85a83.9 83.9 0 0 1 4.28-3.05 42.7 42.7 0 0 0 2.96-2.1 76.18 76.18 0 0 1 7.73-5.18c3.92-2.06 5.06-2.69 5.46-3 .25-.2.9-.5 1.44-.65.54-.16 1.87-.87 2.95-1.58a34.36 34.36 0 0 1 4.54-2.36c1.4-.58 2.73-1.22 2.93-1.42.2-.2.7-.36 1.1-.36.4 0 1.42-.36 2.28-.79.85-.43 2.57-1.07 3.82-1.42l4.45-1.22c12.63-3.44 21.4-2.55 24.43 2.48l1.37 2.29-.03 5.73-.04 5.74.5-2.76c2.75-14.83-6.54-19.55-27.22-13.84-6.13 1.7-7.56 2.2-12.72 4.6a25 25 0 0 1-2.73 1.16c-.38 0-4.63 2.05-4.84 2.34-.11.15-1.35.86-2.76 1.58a45.63 45.63 0 0 0-3.94 2.25c-.75.5-1.55.93-1.77.94-.22.01-1.9 1.07-3.75 2.36-1.84 1.28-4.67 3.25-6.29 4.36-6.4 4.42-9.63 6.83-13.8 10.3-1.42 1.16-4.34 3.55-6.51 5.3-4.4 3.54-16.95 15.86-21.43 21.02a263.7 263.7 0 0 1-5.32 5.92 93.32 93.32 0 0 0-3.8 4.29c-.75.94-1.55 1.91-1.77 2.15-.21.25-.86 1.06-1.43 1.82s-1.45 1.83-1.97 2.38c-.51.55-1.22 1.44-1.57 1.97-.35.54-2.08 2.78-3.84 5-1.76 2.2-3.2 4.18-3.2 4.37 0 .2-.45.83-1 1.42a6.03 6.03 0 0 0-.98 1.24c0 .2-1.95 3.05-4.27 6.25a38.87 38.87 0 0 0-2.02 3.04c-.33.61-1.87 3.2-3.42 5.75-3.7 6.1-5.4 9.34-7.1 13.47a37.77 37.77 0 0 1-1.72 3.78c-1.08 1.35-2.67 10.89-2.3 13.84.93 7.6 10.6 8.1 26.9 1.38 2.14-.88 4.2-1.87 4.56-2.2.37-.33.8-.6.96-.6 1.46 0 18.62-11.91 23.5-16.32a68.7 68.7 0 0 1 4.91-4.18c.06 0 .98-.82 2.03-1.82 1.05-1 2.62-2.35 3.49-2.98 3-2.2 9.5-8.33 18.98-17.94 7.76-7.85 9.7-9.61 10.45-9.5 2.35.33.6 3.02-7.47 11.47-5.8 6.06-17.9 17.73-19.18 18.49-.26.15-1.16.92-2.02 1.7-.85.8-2.35 2.1-3.32 2.88-.98.8-2.75 2.27-3.94 3.28-1.92 1.63-5.23 4.1-8.87 6.62a328.28 328.28 0 0 0-6.47 4.62c-.92.7-4.78 3-5.9 3.54-.31.15-2.53 1.41-4.93 2.81a96.03 96.03 0 0 1-6.54 3.52c-3.77 1.69-5.7 2.54-6.5 2.87-.76.31-1.5.51-6.56 1.78-9.3 2.32-17.1.34-19.96-5.08-1.43-2.7-1.53-13.73-.17-18.77 3.64-13.53 11.74-29.43 21.93-43.06 1.43-1.9 2.59-3.62 2.59-3.82 0-.2.31-.6.7-.88.37-.28 1.36-1.5 2.18-2.72a39.45 39.45 0 0 1 2.56-3.37l3.82-4.3c1.52-1.72 2.95-3.3 3.18-3.53.24-.21 2.04-2.26 4-4.55a153.8 153.8 0 0 1 5.32-5.91c4.85-4.9 15.4-15 16.91-16.2.95-.74 3.85-3.05 6.45-5.12 4.96-3.95 11.33-8.34 12.76-8.79.46-.15.84-.43.84-.63s.75-.73 1.67-1.2c.92-.46 1.95-1.08 2.28-1.37.33-.29 2.46-1.48 4.73-2.65 2.27-1.17 5.63-2.91 7.47-3.88a85.22 85.22 0 0 1 7.3-3.25c2.16-.84 4.38-1.73 4.92-2s2.58-.96 4.53-1.55c1.95-.59 4.08-1.25 4.73-1.47a75.07 75.07 0 0 1 8.28-1.94l4.33-.75c18.64-3.29 30.9 1.57 32.58 12.92 1.17 7.86-1.84 24.77-5.75 32.33a35 35 0 0 0-1.4 3.62c-1.12 3.32-9.78 21.18-12.6 25.96-.62 1.05-1.7 2.95-2.4 4.22a411.63 411.63 0 0 1-11.79 19.46c-.83 1.19-3.38 5-5.67 8.47-7.47 11.3-11.86 17.78-13.16 19.4a9.8 9.8 0 0 0-1.28 1.84c0 .44-3.17 4.76-8.18 11.16-.7.9-1.28 1.73-1.28 1.84 0 .17-1.15 1.71-6.7 8.94-.98 1.27-3.6 4.7-5.81 7.62a84.33 84.33 0 0 1-4.43 5.55c-.54.33-.51.99.03.99.56 0 .1.44 14.65-14a4730.44 4730.44 0 0 1 40.32-39.4c5.67-5.5 23.91-23.34 34.05-33.3 35.9-35.28 36-35.36 37.98-33.17 1.2 1.33-.35 5.8-2.77 8-.63.57-1.65 1.8-2.27 2.76-.62.94-1.46 2.16-1.86 2.7-.4.55-1 1.52-1.33 2.17-.33.65-2 3.4-3.72 6.11a861.31 861.31 0 0 0-6.94 11.23c-2.1 3.47-4.2 6.84-4.68 7.5-.48.64-2.27 3.53-3.99 6.42-1.72 2.88-3.6 5.99-4.2 6.9-.6.9-1.26 2-1.5 2.43-.49.93-.9 1.63-2.75 4.56-1.7 2.7-1.52 2.41-5.94 9.83-2 3.36-5.52 9.18-7.81 12.93-2.3 3.76-4.54 7.48-4.98 8.28a548.03 548.03 0 0 1-5.5 9.53c-1.45 2.49-3.18 5.5-3.84 6.7a96.72 96.72 0 0 1-2.06 3.54c-.48.76-1.8 2.98-2.93 4.93a402.04 402.04 0 0 1-2.43 4.14c-.2.32-.53.94-.72 1.38-.38.85-5.39 9.7-8.63 15.26-3.39 5.8-1.99 5.07 4.3-2.26 2.22-2.6 5.5-6.23 7.27-8.08a671 671 0 0 0 8.66-9.26c6.23-6.79 45.15-45.59 56.93-56.77 8.91-8.44 29.85-27.9 33.09-30.75.96-.85 2.03-1.8 2.38-2.13.34-.33 2.37-2.19 4.5-4.14a450.6 450.6 0 0 0 4.52-4.17c.35-.34 1.97-1.73 3.6-3.1a97.66 97.66 0 0 0 4-3.52 25 25 0 0 1 1.57-1.45c.29-.23 2.46-2.09 4.81-4.14a551.3 551.3 0 0 1 6.3-5.4c1.12-.93 3.14-2.7 4.5-3.93a30.5 30.5 0 0 1 3.15-2.61c.38-.2 1.57-1.1 2.66-2 1.98-1.65 10.14-7.9 12.51-9.6.7-.5 1.73-1.35 2.29-1.88.55-.53 1.2-.96 1.43-.96.23 0 .63-.25.88-.56.26-.3 1.74-1.4 3.3-2.45a77.35 77.35 0 0 0 5.6-4.01c.21-.17 1.54-1.1 2.95-2.07 1.41-.96 3.2-2.24 3.98-2.83a7.44 7.44 0 0 1 1.69-1.08c.3 0 2.47-1.49 3.31-2.27.3-.27.79-.5 1.1-.5.3 0 .56-.26.56-.58a.6.6 0 0 0-1.18 0c0 .32-.16.59-.36.59-.47 0-6.52 3.94-9.67 6.3a66.7 66.7 0 0 1-2.2 1.58 139.11 139.11 0 0 1-7.08 4.93 59.81 59.81 0 0 0-5.12 3.67c-.53.5-1.42 1.16-1.97 1.45-.54.29-1.62 1.2-2.4 2.03a13.6 13.6 0 0 1-2.75 2.26c-.75.41-1.8 1.13-2.34 1.6a31.7 31.7 0 0 1-2.58 1.9c-.87.59-2.33 1.78-3.23 2.65a9.4 9.4 0 0 1-1.96 1.6c-.17 0-.86.49-1.53 1.08l-5.32 4.64a349.82 349.82 0 0 0-5.28 4.67c-.65.6-2.82 2.42-4.82 4.03a44.6 44.6 0 0 0-3.94 3.4c-.17.28-.93 1-1.69 1.62-1.95 1.6-6.88 5.99-9.45 8.4-4.58 4.33-5.08 4.78-5.65 5.1-.31.19-2.65 2.29-5.19 4.67-6.57 6.18-7.2 6.76-10.82 10.05-1.8 1.63-5.15 4.76-7.46 6.96-2.3 2.2-5.5 5.22-7.1 6.7a647.53 647.53 0 0 0-9.86 9.46l-14.42 14.04c-4.12 4-7.75 7.56-8.08 7.9a1591.33 1591.33 0 0 1-15.82 15.88c-.51.46-3.59 3.63-6.84 7.04s-6.88 7.22-8.08 8.46a260.6 260.6 0 0 0-4.53 4.89c-1.3 1.44-3.51 3.82-4.92 5.28-4 4.15-5.91 6.44-5.91 7.03 0 .3-.27.55-.6.55-.9 0-.57-.7 3.86-8.28.44-.75 1.4-2.5 2.13-3.89a31.26 31.26 0 0 1 2.1-3.5c.43-.54.78-1.16.78-1.36 0-.4 3.63-6.75 8.78-15.35.83-1.38 1.67-2.8 1.88-3.19a346.91 346.91 0 0 1 7.08-12.31c.81-1.3 2.4-3.94 3.52-5.87a36.97 36.97 0 0 1 2.65-4.11c.34-.34.95-1.33 1.36-2.21.41-.89 1.1-2.14 1.52-2.79.43-.65 1.16-1.89 1.63-2.76.47-.86 1.27-2.07 1.78-2.69.51-.6.93-1.33.93-1.6s.53-1.19 1.17-2.04a6.83 6.83 0 0 0 1.19-2.01c0-.26.23-.7.5-1 .27-.3.7-.89.97-1.31.56-.92 4.08-6.77 4.65-7.74.21-.37 1.04-1.61 1.82-2.76a49.1 49.1 0 0 0 2.29-3.67c1.38-2.56 4.45-7.51 6.38-10.31a11.2 11.2 0 0 0 1.13-1.86c0-.11.52-.97 1.15-1.9.62-.94 1.6-2.58 2.17-3.65a21.28 21.28 0 0 1 1.55-2.56 25 25 0 0 0 1.63-2.58 15.59 15.59 0 0 1 1.38-2.17c.15-.1.68-1.04 1.19-2.07.5-1.03 1.05-1.87 1.21-1.87.16 0 .68-.8 1.15-1.77.47-.98 1.02-1.78 1.21-1.78.2 0 .46-.44.6-.98.14-.54.36-.99.5-.99.15 0 .7-.71 1.24-1.59.54-.87 1.46-1.96 2.05-2.4 1.34-1.04 3.63-6.35 3.3-7.67-.78-3.08-3.75-2.64-7.8 1.15-4.3 4.03-18.3 17.56-28.26 27.31a63511.2 63511.2 0 0 1-15.2 14.88c-3.69 3.6-6.83 6.55-7 6.55-.16 0-.3.19-.3.42 0 .4-6.28 6.83-6.96 7.12-.18.08-.86.76-1.52 1.52s-2.78 2.88-4.73 4.72a3004.3 3004.3 0 0 0-37.43 36.44 1772.1 1772.1 0 0 1-15.07 14.8c-.3.02-.03-1.13.3-1.24.22-.08 1.15-1.22 2.07-2.54.92-1.32 2.73-3.7 4.04-5.27a78.74 78.74 0 0 0 3.66-4.7c.54-.66 3.46-4.63 5.3-7.23.6-.84 1.27-1.74 1.47-2a99.6 99.6 0 0 0 5.21-7c.8-1.2 1.73-2.42 2.06-2.7.34-.28.62-.85.62-1.25 0-.41.14-.75.31-.75.18 0 1.63-1.99 3.25-4.43a87.74 87.74 0 0 1 3.18-4.63c.13-.1.37-.6.53-1.08.15-.5.43-.89.63-.89.32 0 2.96-3.7 4.88-6.84.73-1.2 3.59-5.65 6.49-10.1a63.8 63.8 0 0 1 1.72-2.57c.9-1.1 3.76-5.8 4.59-7.5a17.82 17.82 0 0 1 1.43-2.55c.27-.32 1.07-1.65 1.77-2.95 1.7-3.2 3.55-6.53 4.14-7.49 2.27-3.71 9.38-18.1 11.15-22.56.4-1.03 1.14-2.85 1.63-4.04 1.67-4.11 4.81-13.2 5.16-14.98 1.23-6.19 1.52-8.1 1.76-11.69 1.2-17.46-7.55-24.15-28.97-22.17m200.59.96a.6.6 0 0 1-.6.59.6.6 0 0 0-.58.59c0 .32.26.6.59.6a.6.6 0 0 0 .59-.6c0-.4.4-.6 1.18-.6.79 0 1.18-.19 1.18-.58 0-.4-.4-.6-1.18-.6-.79 0-1.18.2-1.18.6m26.01.58c-.46.3-.49.47-.1.85.57.58 1 .25.82-.6-.1-.44-.3-.5-.72-.25m-29.56 1.78c0 .33.18.6.4.6.21 0 .39-.27.39-.6 0-.32-.18-.59-.4-.59-.21 0-.39.27-.39.6m27.98-.07c0 .28.27.52.6.52.32 0 .58-.23.58-.52 0-.3-.26-.53-.59-.53-.32 0-.59.24-.59.53m-30.34 1.24c0 .33.24.6.55.6.3 0 .65-.27.77-.6.16-.4-.02-.59-.55-.59-.43 0-.77.27-.77.6m27.5.39c-.59.54-1.3.99-1.58.99-.4 0-.39.08.03.34.73.47 2.03.08 2.03-.6 0-.3.26-.66.59-.79.6-.23.82-.93.29-.93-.17 0-.78.45-1.36.99m-29.87.79c0 .32.25.59.54.59.3 0 .77-.27 1.04-.6.41-.5.33-.58-.55-.58-.65 0-1.03.21-1.03.59m26.3 1.65c-.37.1-.68.34-.68.54s-.27.37-.6.37a.6.6 0 0 0-.59.59.6.6 0 0 1-.6.59c-.33 0-.7.25-.82.56-.11.3-.64.66-1.17.8-.52.12-.95.4-.95.62 0 .21-.27.38-.6.38-.32 0-.58.36-.58.8 0 .92.7 1.05 1.03.19.13-.32.56-.6.97-.6.49 0 .65-.19.5-.58-.17-.44.07-.6.9-.62.62-.02.9-.13.63-.23-.9-.37-.5-.93.7-.93.78 0 1.18-.2 1.18-.59 0-.32.35-.59.77-.59.51 0 .7-.2.56-.56-.14-.36.11-.62.7-.73.71-.14.74-.18.13-.19-.43 0-1.1.08-1.47.18m-32.22 1.9c0 .32.25.58.55.58.3 0 .65-.26.77-.59.16-.4-.02-.59-.54-.59-.43 0-.78.27-.78.6m21.8 5.44a2.4 2.4 0 0 1-1.05.79c-.76.28-.73 1.1.06 1.36.3.1.38-.09.23-.47-.18-.47.01-.62.75-.62.81 0 1.46-.63 1.46-1.42 0-.4-1.17-.1-1.46.36m-4.06 3.03c-.54.62-1.29 1.14-1.66 1.15-.37.02-.86.38-1.1.82-.23.43-.6.78-.82.78-.23 0-.68.27-1 .6-.53.52-.48.59.43.59.56 0 1.13-.27 1.25-.6.13-.32.61-.6 1.07-.62.47-.01.63-.12.36-.23-.91-.36-.5-.92.66-.92.64 0 1.27-.17 1.4-.39.14-.22-.02-.29-.37-.15-.33.13-.61.05-.61-.18 0-.22.49-.46 1.08-.53.65-.08 1.13-.4 1.21-.82.2-1.03-.78-.78-1.9.5m-8.08 5.58c-1.88 1.65-7.61 5.79-8.11 5.86-1.35.19-1.88-.1-2.27-1.2-.77-2.21-7.43-.7-13.85 3.15l-5.52 3.29c-2.7 1.61-5.91 3.62-7.12 4.45l-4.73 3.27c-1.4.96-2.62 1.85-2.73 1.97-.1.13-1.05.85-2.08 1.6-1.91 1.4-5.97 4.62-7.77 6.18a99.71 99.71 0 0 1-5.87 4.66c-.35.22-.72.51-.83.65-.11.14-1.2 1.02-2.42 1.97a522.85 522.85 0 0 0-23.62 19.78 90.9 90.9 0 0 1-4.13 3.61 146.14 146.14 0 0 0-8.65 7.88c-.65.66-2.42 2.34-3.94 3.72a804.66 804.66 0 0 0-23.04 21.88 4141.04 4141.04 0 0 0-44.92 45l-10.83 11.19c-6.7 6.9-9.36 9.73-14.95 15.95a154.1 154.1 0 0 1-4.36 4.73c-.5.42-7 7.54-9.53 10.42-.84.97-3.05 3.45-4.9 5.52a131.73 131.73 0 0 0-4.7 5.54c-.75.97-2.52 3.12-3.94 4.77a148.72 148.72 0 0 0-5.73 7.05 88.6 88.6 0 0 0-1.97 2.58c-3.15 4.4-8.44 4.63-6.94.3.54-1.6 4.13-8.27 7.02-13.05a62.4 62.4 0 0 0 2.13-3.75c.21-.47.6-1.22.86-1.66.27-.44 1.62-2.75 3-5.12 1.4-2.38 2.8-4.77 3.15-5.31.34-.54.93-1.6 1.31-2.36.39-.76 1.19-2.2 1.78-3.21.6-1 1.84-3.13 2.76-4.73.92-1.6 2.2-3.79 2.85-4.87a37.09 37.09 0 0 0 1.58-2.87c.21-.49.73-1.37 1.14-1.97.42-.59 2.2-3.65 3.98-6.79 1.78-3.14 3.75-6.51 4.37-7.49.63-.97 1.32-2.21 1.55-2.75.22-.55.57-1.26.79-1.58.21-.33.84-1.39 1.4-2.37.54-.97 1.42-2.48 1.93-3.35 1.34-2.27 1.8-3.05 4.5-7.88 1.35-2.38 2.6-4.6 2.81-4.92.68-1.1 3.35-5.71 3.65-6.3.17-.33.65-1.13 1.08-1.78.43-.65.95-1.57 1.16-2.05.2-.47 1.13-2.07 2.04-3.54a70.62 70.62 0 0 0 2.4-4.17c.4-.82 1.7-3.09 2.89-5.04a32.78 32.78 0 0 0 2.15-3.88c0-.18.33-.75.73-1.27.4-.52 1.34-2.1 2.1-3.5a320.28 320.28 0 0 1 7.48-13c.88-1.41 2.09-3.45 2.68-4.54.6-1.08 1.73-3.1 2.52-4.47.8-1.37 1.44-2.6 1.44-2.72 0-.12.44-.8.98-1.51.91-1.2 1.31-2.53.75-2.53-.59 0-13.65 11.78-16.06 14.48-.43.5-.93.89-1.11.89-.18 0-1.17.85-2.2 1.88a1766.8 1766.8 0 0 1-22.97 21.77c-10.68 9.8-43.53 42.67-53.18 53.2-7.45 8.12-7.45 8.12-10.68 11.83-1.6 1.85-4.25 4.7-5.88 6.35a2089.1 2089.1 0 0 0-7.14 7.28 1247.17 1247.17 0 0 1-22.04 21.66c-5.08 4.86-9.1 6.95-14.42 7.5-4.48.47-4.62-1.82-.43-7.02a49.4 49.4 0 0 0 2.3-3.07c.36-.54 1.68-2.25 2.96-3.8a324.6 324.6 0 0 0 4.68-5.87 79.63 79.63 0 0 1 3.42-4.15c.58-.61 2.08-2.4 3.34-4a241.5 241.5 0 0 1 7.9-9.37c.5-.54 2.37-2.77 4.16-4.94l3.75-4.53c.28-.32 2.03-2.44 3.89-4.72l4.7-5.71c.72-.87 2.84-3.44 4.7-5.72 1.87-2.27 4.58-5.55 6.04-7.27 1.45-1.73 3.25-3.94 4-4.93a25.3 25.3 0 0 1 1.8-2.18c.24-.22 1.05-1.2 1.79-2.17s1.53-1.95 1.77-2.17c.24-.21 1.03-1.19 1.77-2.17.74-.97 2.32-2.94 3.52-4.37 1.2-1.43 2.88-3.53 3.75-4.67l3.92-5.09c1.3-1.65 3.37-4.34 4.62-5.96 1.25-1.63 2.58-3.3 2.94-3.71a79.98 79.98 0 0 0 4.97-6.68c.27-.49 1.44-2.21 2.59-3.83a811.88 811.88 0 0 0 11.53-16.52c2.08-3.2 8.41-13.02 10.03-15.57.42-.65 1.03-1.66 1.36-2.25.33-.6 1.68-2.81 3-4.93 3.48-5.6 6.8-11.29 8.68-14.89.9-1.73 2.1-3.95 2.67-4.92.56-.98 1.2-2.22 1.44-2.76.23-.54.76-1.7 1.17-2.56.75-1.57 3.74-9.2 5.1-13.04.4-1.1.9-2.35 1.13-2.76.43-.8 1.56-5.04 1.88-7.06.25-1.58-.57.43-1.6 3.94-.39 1.3-.92 2.9-1.2 3.55-.27.65-1.06 2.69-1.75 4.53-2.06 5.5-2.44 6.45-3.01 7.55-.3.57-.55 1.4-.55 1.82 0 .43-.26.99-.57 1.25a3.68 3.68 0 0 0-.84 1.72c-.15.69-.4 1.34-.55 1.45-.15.11-1.52 2.5-3.03 5.32a229.7 229.7 0 0 1-8.85 15.32 16.53 16.53 0 0 0-1.53 2.6c0 .16-.62 1.1-1.38 2.1-.76 1-1.38 2-1.38 2.24 0 .47-1.09 2.27-1.87 3.09-.27.29-.5.76-.5 1.05 0 .3-.14.59-.32.66-.3.12-1.03 1.2-5.89 8.8-.97 1.52-2.1 3.24-2.5 3.83a4.1 4.1 0 0 0-.74 1.68c0 .33-.18.6-.39.6-.36 0-1.17 1.1-6.91 9.42a60.19 60.19 0 0 1-3.26 4.37c-.48.52-.88 1.13-.89 1.36a5.9 5.9 0 0 1-1.18 1.78c-.64.75-1.17 1.6-1.17 1.88 0 .27-.15.5-.33.5-.2 0-.99.93-1.77 2.07-1.93 2.79-2.66 3.74-6.57 8.57-4.31 5.33-5.51 6.95-5.51 7.44 0 .22-.32.63-.7.91-.39.29-1.35 1.4-2.14 2.49a25.09 25.09 0 0 1-2.5 2.96 40.7 40.7 0 0 0-3.17 3.74c-4.64 6.06-6.11 7.89-6.48 8.01-.21.08-.38.35-.38.6 0 .26-.31.75-.7 1.1-1.11 1-4.56 5.04-7 8.22a45.48 45.48 0 0 1-2.56 3.15c-.54.37-3.14 3.95-3.14 4.32 0 .2-.34.47-.76.6s-1.1.83-1.53 1.54c-.42.72-2.2 2.9-3.97 4.87-1.76 1.96-3.2 3.7-3.2 3.85 0 .3-3.13 4.06-8.67 10.42-6.49 7.46-7.3 8.44-8.2 9.94-.5.83-1.74 2.36-2.76 3.4a61.2 61.2 0 0 0-3.68 4.24c-1 1.29-2.98 3.78-4.39 5.54-1.4 1.77-2.99 3.85-3.52 4.64a31.7 31.7 0 0 1-2.32 2.9c-3.02 3.32-3.86 6.07-2.29 7.53 1.71 1.6 7.41.4 12.9-2.72 2.28-1.29 4.41-3.2 5.15-4.61.26-.5.65-.89.88-.89 1.32 0 36.6-35.86 36.6-37.2 0-.32.32-.68.7-.8a6.1 6.1 0 0 0 1.88-1.75c4.42-5.75 37.45-39.32 50.73-51.57a24.62 24.62 0 0 0 2.65-2.66 5.7 5.7 0 0 1 1.78-1.78c.1 0 1.24-1.02 2.52-2.27 2.13-2.07 10.8-10.26 14.93-14.09.94-.87 2.98-2.82 4.54-4.34s4.25-4 5.97-5.51a370.6 370.6 0 0 0 11.08-10.25c5.37-5.12 5.51-5.09 2.47.56-2.66 4.94-3 5.53-3.9 6.93-.42.65-.96 1.67-1.2 2.27-.24.6-.6 1.08-.8 1.08-.2 0-.66.67-1.02 1.48-.37.81-.88 1.74-1.13 2.07-.49.63-2.7 4.64-4.62 8.37-.64 1.25-1.32 2.27-1.5 2.27-.2 0-.35.34-.35.76s-.26 1.02-.59 1.35c-.32.32-.59.68-.59.8 0 .1-.5.96-1.13 1.9a13.9 13.9 0 0 0-1.4 2.58c-.16.49-.45.88-.65.88s-.37.25-.37.55c0 .3-.26.76-.59 1.03-.32.27-.59.75-.59 1.06 0 .31-.43 1.13-.96 1.82-.52.7-1.14 1.7-1.38 2.25-.23.54-.59 1.25-.8 1.57-.21.33-1.74 2.99-3.39 5.91a123.98 123.98 0 0 1-3.39 5.8c-.36.43-1.96 3.3-3.15 5.63-.28.54-1.7 3.01-3.18 5.49a125.42 125.42 0 0 0-2.66 4.61c0 .07-.54.96-1.19 1.98a8.68 8.68 0 0 0-1.18 2.38c0 .29-.8 1.66-1.77 3.06a19.36 19.36 0 0 0-1.78 2.82c0 .16-.24.57-.54.9-.3.35-.97 1.43-1.5 2.4l-2.7 4.93a31.48 31.48 0 0 1-2.24 3.68c-.28.28-.5.95-.5 1.47 0 .53-.23.96-.5.96s-.8.67-1.17 1.48a35.3 35.3 0 0 1-1.53 2.85 66.4 66.4 0 0 0-1.7 2.96 76.2 76.2 0 0 1-2.35 3.91 26.84 26.84 0 0 0-1.72 2.96c-.12.34-.79 1.6-1.49 2.79a789.26 789.26 0 0 0-7.09 12.4c-.6 1.1-1.85 3.24-2.8 4.77a22.1 22.1 0 0 0-1.72 3.1c0 .18-.62 1.19-1.38 2.24-.76 1.06-1.38 2-1.38 2.09 0 .1-.53 1.32-1.18 2.72-1.72 3.7-1.16 5.79 1.55 5.78 1.13 0 5.15-2.17 5.15-2.77 0-.42.78-1.38 2.46-3 .6-.59 1.08-1.28 1.08-1.55s.53-.94 1.19-1.49c.64-.55 1.18-1.17 1.18-1.38 0-.22.22-.63.5-.92 1.53-1.6 7.77-8.96 7.77-9.17 0-.13.5-.72 1.09-1.31.6-.59 1.5-1.6 2-2.25 1.4-1.78 4.75-5.6 6.96-7.9 1.09-1.13 4.01-4.33 6.5-7.12 2.5-2.78 5.47-6 6.6-7.14 1.14-1.15 2.07-2.35 2.07-2.67 0-.33.23-.6.5-.6s1.5-1.1 2.72-2.45c1.23-1.36 3.04-3.27 4.04-4.24.99-.98 1.8-2 1.8-2.27s.18-.49.4-.49c.21 0 2.3-1.98 4.63-4.4 12.14-12.6 34.03-34.8 35.57-36.07.54-.44 2.34-2.2 3.99-3.91a1291.1 1291.1 0 0 1 26.54-25.97c2.11-1.95 4.04-3.76 4.29-4.02l.93-.99a93 93 0 0 1 3.31-3.06 512 512 0 0 0 4.1-3.75c4.69-4.43 7.06-6.6 9.46-8.62 2.45-2.07 7.52-6.54 9.22-8.13.35-.32 1.43-1.2 2.4-1.94s2.51-2.12 3.43-3.06c.9-.93 1.8-1.7 1.98-1.7.18 0 1.17-.8 2.2-1.77 1.04-.97 2.07-1.77 2.3-1.77.43 0 2-1.32 4.13-3.45.7-.7 1.45-1.28 1.66-1.28.21 0 .45-.14.52-.3.07-.17 1.1-1 2.3-1.87a30.15 30.15 0 0 0 2.56-2 31.9 31.9 0 0 1 2.68-2.15c1.26-.93 2.46-2.01 2.67-2.41.22-.4.63-.73.93-.73.3 0 .63-.27.76-.6a.95.95 0 0 1 .8-.58c.33 0 .82-.32 1.1-.7 1.8-2.46 20.64-14.94 27.71-18.35 7.83-3.79 9.69-4 11.03-1.3.75 1.5 4.26.5 6.11-1.76.11-.14.78-.54 1.48-.9s1.28-.92 1.28-1.25c0-.43.3-.53 1.08-.38.6.12.87.1.6-.02-.87-.41-.53-.9.7-1.03 1.05-.1 1.14-.2.7-.74-.46-.55-.6-.54-1.3.09M278.02 204.4c-4.25.92-10.78 3.54-18.72 7.52-2.5 1.25-5.1 2.5-5.8 2.79-.69.28-1.84.9-2.56 1.38-.71.48-3.04 1.93-5.18 3.22-3.94 2.4-4.76 2.93-9.57 6.14-3.15 2.1-12.7 11.23-15.63 14.94a24.98 24.98 0 0 1-2.5 2.86c-.26.17-.59.83-.73 1.48s-.4 1.18-.58 1.18c-.5 0-3.73 5.37-5.12 8.48a82.57 82.57 0 0 1-1.6 3.43c-.2.37-.49 1.43-.63 2.36a6.45 6.45 0 0 1-.68 2.22c-.6.75-1.04 9.6-.65 12.8a8.83 8.83 0 0 0 10.85 7.74c4.5-.96 5.56-1.23 6.11-1.53a10.5 10.5 0 0 1 2.32-.62c1.54-.26 2.95-.72 5.35-1.76 1.1-.47 4.53-1.6 5.71-1.88.55-.13 1.65-.64 2.46-1.15.8-.51 1.7-.93 1.98-.93s.86-.23 1.29-.52c.43-.29 1.57-.84 2.55-1.22.98-.38 3.66-1.83 5.97-3.22a45.7 45.7 0 0 1 4.53-2.54 7.5 7.5 0 0 0 1.88-1.18 7.91 7.91 0 0 1 1.87-1.17c.17 0 1.48-.7 2.9-1.58a31.3 31.3 0 0 1 2.73-1.57c.3 0 7.7-5.06 8.33-5.7.34-.33.78-.6.98-.6.6 0 4.3-2.8 4.71-3.57 1.68-3.14-1.64-6.94-4.02-4.6-.29.3-1.14.87-1.9 1.29-.76.42-2 1.22-2.76 1.78a17.6 17.6 0 0 1-1.97 1.3 23.5 23.5 0 0 0-3.48 2.16c-.71.52-2.13 1.37-3.14 1.9-1.02.55-4.48 2.74-7.68 4.9-3.21 2.14-6.08 3.9-6.39 3.9-.3 0-.64.16-.77.36-.22.36-3.4 2-3.88 2-.14 0-1.92.8-3.96 1.78a40.53 40.53 0 0 1-4 1.77c-.17 0-1.13.37-2.12.82l-3.8 1.72c-4.98 2.26-12.18 4.3-13.21 3.75-1.31-.7-1.3-5.92.02-7.24.21-.21.4-.67.4-1 0-.34.24-1.06.54-1.6l2-3.69c2.7-4.99 5.28-8.5 6.44-8.75a71.82 71.82 0 0 0 8.66-3.18c1.14-.51 2.3-.93 2.56-.93.26 0 1.02-.33 1.67-.73.66-.4 1.9-.95 2.76-1.23a8.04 8.04 0 0 0 2.36-1.2 5.46 5.46 0 0 1 1.67-.96c.49-.15 3.47-1.72 6.64-3.5 3.16-1.77 6.49-3.62 7.39-4.11.9-.5 2.17-1.24 2.82-1.67.65-.43 1.62-1 2.17-1.27.94-.46 3.3-1.97 7.77-4.96 6.28-4.2 14.1-11.63 15.48-14.7a26 26 0 0 1 1-1.93c1.05-1.82.78-7.33-.42-8.44-1.63-1.51-7.74-2.34-11.42-1.54m9.7 1.33c5.68 2.9-.12 14.64-10.88 22.04a445.54 445.54 0 0 1-11.26 7.47l-4.3 2.53-6.57 3.84c-3.57 2.08-14.42 7.46-16.89 8.37-.86.32-2.9 1.14-4.53 1.83-1.63.69-4.02 1.6-5.32 2.04-2.5.84-3.47 1.51-4.25 2.92-.26.48-1.28 2.21-2.25 3.86l-2.54 4.28c-2.69 4.56-3.79 10.48-2.27 12.23.99 1.15 6.31.18 10.46-1.9.6-.3 1.38-.56 1.7-.56a15 15 0 0 0 3.15-1.18 30.4 30.4 0 0 1 3.52-1.42c.53-.14 1.06-.4 1.18-.6.12-.19.47-.35.79-.35.95 0 13.35-6.2 16.02-8 3.69-2.5 9.77-6.38 11.34-7.23 1.49-.81 4.12-2.49 9.56-6.11 4.59-3.05 5.8-3 5.8.26 0 2.37-3.4 5.03-16.15 12.6-2.5 1.48-4.98 2.97-5.52 3.32-.54.34-1.43.85-1.97 1.13-.54.28-1.34.72-1.78.99-3.2 1.96-11.99 6.57-12.52 6.58-.17 0-1.41.52-2.76 1.15-2.36 1.1-10.8 4-15.25 5.26-12.04 3.38-16.2.3-15.64-11.57.37-7.84 2.37-13.84 6.94-20.84a70.8 70.8 0 0 0 2.35-3.74c1.04-2.55 16.15-17.94 17.63-17.94.27 0 .64-.24.81-.54.31-.52 6.18-4.56 8.6-5.91a47.7 47.7 0 0 0 2.22-1.34c3.7-2.4 16.2-8.88 19.46-10.1 1.08-.4 2.68-1.05 3.55-1.44.88-.39 2.12-.83 2.76-.99a6.2 6.2 0 0 0 1.56-.55c.47-.33 4.16-1.14 6.11-1.35 2.33-.25 5.64.2 7.13.96m-12.84 4.48c-.65.3-2.16.93-3.35 1.41-1.2.48-2.73 1.3-3.42 1.82-.7.52-1.36.94-1.49.94-.26 0-5.07 3.3-6.55 4.5a93.7 93.7 0 0 1-2.33 1.81c-.73.54-1.6 1.27-1.94 1.63-.35.35-2.49 2.21-4.77 4.14a163.14 163.14 0 0 0-18.3 18.76l-1.5 1.87h1.16c.63 0 2.12-.58 3.3-1.28 1.18-.71 3.2-1.89 4.5-2.61 15.91-8.88 41.25-31.68 37.02-33.3-.84-.33-.97-.31-2.33.31m1.98.65c.14.23-.02.73-.37 1.12-.35.38-.63.9-.63 1.13 0 .54-11.27 11.91-11.8 11.91-.2 0-.63.37-.94.82a18.9 18.9 0 0 1-3.16 2.66 154.12 154.12 0 0 0-9.65 7.5c-.37.35-1.99 1.44-3.61 2.41a34.35 34.35 0 0 0-3.15 2.02c-.11.14-1.89 1.2-3.94 2.35a56.82 56.82 0 0 0-4.37 2.61c-.73.61-1.94.7-1.94.13 0-.21.35-.61.79-.88.43-.27.79-.67.8-.9 0-.21 1.15-1.53 2.55-2.93 1.4-1.4 2.56-2.66 2.56-2.8 0-.13 1.8-2 4-4.15 12.11-11.83 22.55-19.66 30.16-22.64 2.26-.88 2.37-.9 2.7-.36"
      fill="#8da4a4"
    />
  </g>
</svg>
